<?xml version="1.0" encoding="UTF-8" standalone="no"?>
<!DOCTYPE svg PUBLIC "-//W3C//DTD SVG 1.1//EN"
 "http://www.w3.org/Graphics/SVG/1.1/DTD/svg11.dtd">
<!-- Generated by graphviz version 2.43.0 (0)
 -->
<!-- Title: _95 Pages: 1 -->
<svg width="1766pt" height="1411pt"
 viewBox="0.00 0.00 1766.00 1411.00" xmlns="http://www.w3.org/2000/svg" xmlns:xlink="http://www.w3.org/1999/xlink">
<g id="graph0" class="graph" transform="scale(1 1) rotate(0) translate(4 1407)">
<title>_95</title>
<polygon fill="white" stroke="transparent" points="-4,4 -4,-1407 1762,-1407 1762,4 -4,4"/>
<g id="clust1" class="cluster">
<title>cluster95diagram</title>
<polygon fill="none" stroke="black" points="8,-8 8,-1395 1750,-1395 1750,-8 8,-8"/>
<text text-anchor="start" x="845" y="-1376.3" font-family="Times,serif" font-weight="bold" font-size="14.00">Diagram</text>
</g>
<g id="clust2" class="cluster">
<title>cluster95subsystems</title>
<polygon fill="none" stroke="white" points="16,-16 16,-1356 1742,-1356 1742,-16 16,-16"/>
</g>
<!-- s2 -->
<g id="node1" class="node">
<title>s2</title>
<polygon fill="none" stroke="black" points="32.5,-1309 32.5,-1343 663.5,-1343 663.5,-1309 32.5,-1309"/>
<text text-anchor="start" x="286.5" y="-1329.8" font-family="Times,serif" font-weight="bold" font-size="14.00">MultibodyPlant</text>
<text text-anchor="start" x="304" y="-1315.8" font-family="Times,serif" font-size="14.00">name=plant</text>
<polygon fill="none" stroke="black" points="32.5,-1288 32.5,-1309 299.5,-1309 299.5,-1288 32.5,-1288"/>
<text text-anchor="start" x="107.5" y="-1294.8" font-family="Times,serif" font-size="14.00">geometry_query</text>
<polygon fill="none" stroke="black" points="299.5,-1288 299.5,-1309 663.5,-1309 663.5,-1288 299.5,-1288"/>
<text text-anchor="start" x="427" y="-1294.8" font-family="Times,serif" font-size="14.00">geometry_pose</text>
<polygon fill="none" stroke="black" points="32.5,-1267 32.5,-1288 299.5,-1288 299.5,-1267 32.5,-1267"/>
<text text-anchor="start" x="55" y="-1273.8" font-family="Times,serif" font-size="14.00" fill="grey">WorldModelInstance_actuation</text>
<polygon fill="none" stroke="black" points="299.5,-1267 299.5,-1288 663.5,-1288 663.5,-1267 299.5,-1267"/>
<text text-anchor="start" x="355.5" y="-1273.8" font-family="Times,serif" font-size="14.00" fill="grey">WorldModelInstance_net_actuation</text>
<polygon fill="none" stroke="black" points="32.5,-1246 32.5,-1267 299.5,-1267 299.5,-1246 32.5,-1246"/>
<text text-anchor="start" x="50" y="-1252.8" font-family="Times,serif" font-size="14.00" fill="grey">DefaultModelInstance_actuation</text>
<polygon fill="none" stroke="black" points="299.5,-1246 299.5,-1267 663.5,-1267 663.5,-1246 299.5,-1246"/>
<text text-anchor="start" x="350.5" y="-1252.8" font-family="Times,serif" font-size="14.00" fill="grey">DefaultModelInstance_net_actuation</text>
<polygon fill="none" stroke="black" points="32.5,-1225 32.5,-1246 299.5,-1246 299.5,-1225 32.5,-1225"/>
<text text-anchor="start" x="93.5" y="-1231.8" font-family="Times,serif" font-size="14.00" fill="grey">quadrotor_actuation</text>
<polygon fill="none" stroke="black" points="299.5,-1225 299.5,-1246 663.5,-1246 663.5,-1225 299.5,-1225"/>
<text text-anchor="start" x="394" y="-1231.8" font-family="Times,serif" font-size="14.00" fill="grey">quadrotor_net_actuation</text>
<polygon fill="none" stroke="black" points="32.5,-1204 32.5,-1225 299.5,-1225 299.5,-1204 32.5,-1204"/>
<text text-anchor="start" x="64.5" y="-1210.8" font-family="Times,serif" font-size="14.00" fill="grey">visual_quadrotor0_actuation</text>
<polygon fill="none" stroke="black" points="299.5,-1204 299.5,-1225 663.5,-1225 663.5,-1204 299.5,-1204"/>
<text text-anchor="start" x="365" y="-1210.8" font-family="Times,serif" font-size="14.00" fill="grey">visual_quadrotor0_net_actuation</text>
<polygon fill="none" stroke="black" points="32.5,-1183 32.5,-1204 299.5,-1204 299.5,-1183 32.5,-1183"/>
<text text-anchor="start" x="64.5" y="-1189.8" font-family="Times,serif" font-size="14.00" fill="grey">visual_quadrotor1_actuation</text>
<polygon fill="none" stroke="black" points="299.5,-1183 299.5,-1204 663.5,-1204 663.5,-1183 299.5,-1183"/>
<text text-anchor="start" x="365" y="-1189.8" font-family="Times,serif" font-size="14.00" fill="grey">visual_quadrotor1_net_actuation</text>
<polygon fill="none" stroke="black" points="32.5,-1162 32.5,-1183 299.5,-1183 299.5,-1162 32.5,-1162"/>
<text text-anchor="start" x="64.5" y="-1168.8" font-family="Times,serif" font-size="14.00" fill="grey">visual_quadrotor2_actuation</text>
<polygon fill="none" stroke="black" points="299.5,-1162 299.5,-1183 663.5,-1183 663.5,-1162 299.5,-1162"/>
<text text-anchor="start" x="365" y="-1168.8" font-family="Times,serif" font-size="14.00" fill="grey">visual_quadrotor2_net_actuation</text>
<polygon fill="none" stroke="black" points="32.5,-1141 32.5,-1162 299.5,-1162 299.5,-1141 32.5,-1141"/>
<text text-anchor="start" x="64.5" y="-1147.8" font-family="Times,serif" font-size="14.00" fill="grey">visual_quadrotor3_actuation</text>
<polygon fill="none" stroke="black" points="299.5,-1141 299.5,-1162 663.5,-1162 663.5,-1141 299.5,-1141"/>
<text text-anchor="start" x="365" y="-1147.8" font-family="Times,serif" font-size="14.00" fill="grey">visual_quadrotor3_net_actuation</text>
<polygon fill="none" stroke="black" points="32.5,-1120 32.5,-1141 299.5,-1141 299.5,-1120 32.5,-1120"/>
<text text-anchor="start" x="64.5" y="-1126.8" font-family="Times,serif" font-size="14.00" fill="grey">visual_quadrotor4_actuation</text>
<polygon fill="none" stroke="black" points="299.5,-1120 299.5,-1141 663.5,-1141 663.5,-1120 299.5,-1120"/>
<text text-anchor="start" x="365" y="-1126.8" font-family="Times,serif" font-size="14.00" fill="grey">visual_quadrotor4_net_actuation</text>
<polygon fill="none" stroke="black" points="32.5,-1099 32.5,-1120 299.5,-1120 299.5,-1099 32.5,-1099"/>
<text text-anchor="start" x="64.5" y="-1105.8" font-family="Times,serif" font-size="14.00" fill="grey">visual_quadrotor5_actuation</text>
<polygon fill="none" stroke="black" points="299.5,-1099 299.5,-1120 663.5,-1120 663.5,-1099 299.5,-1099"/>
<text text-anchor="start" x="365" y="-1105.8" font-family="Times,serif" font-size="14.00" fill="grey">visual_quadrotor5_net_actuation</text>
<polygon fill="none" stroke="black" points="32.5,-1078 32.5,-1099 299.5,-1099 299.5,-1078 32.5,-1078"/>
<text text-anchor="start" x="64.5" y="-1084.8" font-family="Times,serif" font-size="14.00" fill="grey">visual_quadrotor6_actuation</text>
<polygon fill="none" stroke="black" points="299.5,-1078 299.5,-1099 663.5,-1099 663.5,-1078 299.5,-1078"/>
<text text-anchor="start" x="365" y="-1084.8" font-family="Times,serif" font-size="14.00" fill="grey">visual_quadrotor6_net_actuation</text>
<polygon fill="none" stroke="black" points="32.5,-1057 32.5,-1078 299.5,-1078 299.5,-1057 32.5,-1057"/>
<text text-anchor="start" x="64.5" y="-1063.8" font-family="Times,serif" font-size="14.00" fill="grey">visual_quadrotor7_actuation</text>
<polygon fill="none" stroke="black" points="299.5,-1057 299.5,-1078 663.5,-1078 663.5,-1057 299.5,-1057"/>
<text text-anchor="start" x="365" y="-1063.8" font-family="Times,serif" font-size="14.00" fill="grey">visual_quadrotor7_net_actuation</text>
<polygon fill="none" stroke="black" points="32.5,-1036 32.5,-1057 299.5,-1057 299.5,-1036 32.5,-1036"/>
<text text-anchor="start" x="64.5" y="-1042.8" font-family="Times,serif" font-size="14.00" fill="grey">visual_quadrotor8_actuation</text>
<polygon fill="none" stroke="black" points="299.5,-1036 299.5,-1057 663.5,-1057 663.5,-1036 299.5,-1036"/>
<text text-anchor="start" x="365" y="-1042.8" font-family="Times,serif" font-size="14.00" fill="grey">visual_quadrotor8_net_actuation</text>
<polygon fill="none" stroke="black" points="32.5,-1015 32.5,-1036 299.5,-1036 299.5,-1015 32.5,-1015"/>
<text text-anchor="start" x="64.5" y="-1021.8" font-family="Times,serif" font-size="14.00" fill="grey">visual_quadrotor9_actuation</text>
<polygon fill="none" stroke="black" points="299.5,-1015 299.5,-1036 663.5,-1036 663.5,-1015 299.5,-1015"/>
<text text-anchor="start" x="365" y="-1021.8" font-family="Times,serif" font-size="14.00" fill="grey">visual_quadrotor9_net_actuation</text>
<polygon fill="none" stroke="black" points="32.5,-994 32.5,-1015 299.5,-1015 299.5,-994 32.5,-994"/>
<text text-anchor="start" x="132.5" y="-1000.8" font-family="Times,serif" font-size="14.00" fill="grey">actuation</text>
<polygon fill="none" stroke="black" points="299.5,-994 299.5,-1015 663.5,-1015 663.5,-994 299.5,-994"/>
<text text-anchor="start" x="433" y="-1000.8" font-family="Times,serif" font-size="14.00" fill="grey">net_actuation</text>
<polygon fill="none" stroke="black" points="32.5,-973 32.5,-994 299.5,-994 299.5,-973 32.5,-973"/>
<text text-anchor="start" x="40.5" y="-979.8" font-family="Times,serif" font-size="14.00" fill="grey">WorldModelInstance_desired_state</text>
<polygon fill="none" stroke="black" points="299.5,-973 299.5,-994 663.5,-994 663.5,-973 299.5,-973"/>
<text text-anchor="start" x="463" y="-979.8" font-family="Times,serif" font-size="14.00">state</text>
<polygon fill="none" stroke="black" points="32.5,-952 32.5,-973 299.5,-973 299.5,-952 32.5,-952"/>
<text text-anchor="start" x="35.5" y="-958.8" font-family="Times,serif" font-size="14.00" fill="grey">DefaultModelInstance_desired_state</text>
<polygon fill="none" stroke="black" points="299.5,-952 299.5,-973 663.5,-973 663.5,-952 299.5,-952"/>
<text text-anchor="start" x="440.5" y="-958.8" font-family="Times,serif" font-size="14.00">body_poses</text>
<polygon fill="none" stroke="black" points="32.5,-931 32.5,-952 299.5,-952 299.5,-931 32.5,-931"/>
<text text-anchor="start" x="78.5" y="-937.8" font-family="Times,serif" font-size="14.00" fill="grey">quadrotor_desired_state</text>
<polygon fill="none" stroke="black" points="299.5,-931 299.5,-952 663.5,-952 663.5,-931 299.5,-931"/>
<text text-anchor="start" x="420" y="-937.8" font-family="Times,serif" font-size="14.00">spatial_velocities</text>
<polygon fill="none" stroke="black" points="32.5,-910 32.5,-931 299.5,-931 299.5,-910 32.5,-910"/>
<text text-anchor="start" x="50" y="-916.8" font-family="Times,serif" font-size="14.00" fill="grey">visual_quadrotor0_desired_state</text>
<polygon fill="none" stroke="black" points="299.5,-910 299.5,-931 663.5,-931 663.5,-910 299.5,-910"/>
<text text-anchor="start" x="406.5" y="-916.8" font-family="Times,serif" font-size="14.00">spatial_accelerations</text>
<polygon fill="none" stroke="black" points="32.5,-889 32.5,-910 299.5,-910 299.5,-889 32.5,-889"/>
<text text-anchor="start" x="50" y="-895.8" font-family="Times,serif" font-size="14.00" fill="grey">visual_quadrotor1_desired_state</text>
<polygon fill="none" stroke="black" points="299.5,-889 299.5,-910 663.5,-910 663.5,-889 299.5,-889"/>
<text text-anchor="start" x="392.5" y="-895.8" font-family="Times,serif" font-size="14.00">generalized_acceleration</text>
<polygon fill="none" stroke="black" points="32.5,-868 32.5,-889 299.5,-889 299.5,-868 32.5,-868"/>
<text text-anchor="start" x="50" y="-874.8" font-family="Times,serif" font-size="14.00" fill="grey">visual_quadrotor2_desired_state</text>
<polygon fill="none" stroke="black" points="299.5,-868 299.5,-889 663.5,-889 663.5,-868 299.5,-868"/>
<text text-anchor="start" x="386" y="-874.8" font-family="Times,serif" font-size="14.00" fill="grey">WorldModelInstance_state</text>
<polygon fill="none" stroke="black" points="32.5,-847 32.5,-868 299.5,-868 299.5,-847 32.5,-847"/>
<text text-anchor="start" x="50" y="-853.8" font-family="Times,serif" font-size="14.00" fill="grey">visual_quadrotor3_desired_state</text>
<polygon fill="none" stroke="black" points="299.5,-847 299.5,-868 663.5,-868 663.5,-847 299.5,-847"/>
<text text-anchor="start" x="315.5" y="-853.8" font-family="Times,serif" font-size="14.00" fill="grey">WorldModelInstance_generalized_acceleration</text>
<polygon fill="none" stroke="black" points="32.5,-826 32.5,-847 299.5,-847 299.5,-826 32.5,-826"/>
<text text-anchor="start" x="50" y="-832.8" font-family="Times,serif" font-size="14.00" fill="grey">visual_quadrotor4_desired_state</text>
<polygon fill="none" stroke="black" points="299.5,-826 299.5,-847 663.5,-847 663.5,-826 299.5,-826"/>
<text text-anchor="start" x="381" y="-832.8" font-family="Times,serif" font-size="14.00" fill="grey">DefaultModelInstance_state</text>
<polygon fill="none" stroke="black" points="32.5,-805 32.5,-826 299.5,-826 299.5,-805 32.5,-805"/>
<text text-anchor="start" x="50" y="-811.8" font-family="Times,serif" font-size="14.00" fill="grey">visual_quadrotor5_desired_state</text>
<polygon fill="none" stroke="black" points="299.5,-805 299.5,-826 663.5,-826 663.5,-805 299.5,-805"/>
<text text-anchor="start" x="310.5" y="-811.8" font-family="Times,serif" font-size="14.00" fill="grey">DefaultModelInstance_generalized_acceleration</text>
<polygon fill="none" stroke="black" points="32.5,-784 32.5,-805 299.5,-805 299.5,-784 32.5,-784"/>
<text text-anchor="start" x="50" y="-790.8" font-family="Times,serif" font-size="14.00" fill="grey">visual_quadrotor6_desired_state</text>
<polygon fill="none" stroke="black" points="299.5,-784 299.5,-805 663.5,-805 663.5,-784 299.5,-784"/>
<text text-anchor="start" x="424" y="-790.8" font-family="Times,serif" font-size="14.00">quadrotor_state</text>
<polygon fill="none" stroke="black" points="32.5,-763 32.5,-784 299.5,-784 299.5,-763 32.5,-763"/>
<text text-anchor="start" x="50" y="-769.8" font-family="Times,serif" font-size="14.00" fill="grey">visual_quadrotor7_desired_state</text>
<polygon fill="none" stroke="black" points="299.5,-763 299.5,-784 663.5,-784 663.5,-763 299.5,-763"/>
<text text-anchor="start" x="353.5" y="-769.8" font-family="Times,serif" font-size="14.00">quadrotor_generalized_acceleration</text>
<polygon fill="none" stroke="black" points="32.5,-742 32.5,-763 299.5,-763 299.5,-742 32.5,-742"/>
<text text-anchor="start" x="50" y="-748.8" font-family="Times,serif" font-size="14.00" fill="grey">visual_quadrotor8_desired_state</text>
<polygon fill="none" stroke="black" points="299.5,-742 299.5,-763 663.5,-763 663.5,-742 299.5,-742"/>
<text text-anchor="start" x="395.5" y="-748.8" font-family="Times,serif" font-size="14.00">visual_quadrotor0_state</text>
<polygon fill="none" stroke="black" points="32.5,-721 32.5,-742 299.5,-742 299.5,-721 32.5,-721"/>
<text text-anchor="start" x="50" y="-727.8" font-family="Times,serif" font-size="14.00" fill="grey">visual_quadrotor9_desired_state</text>
<polygon fill="none" stroke="black" points="299.5,-721 299.5,-742 663.5,-742 663.5,-721 299.5,-721"/>
<text text-anchor="start" x="325" y="-727.8" font-family="Times,serif" font-size="14.00">visual_quadrotor0_generalized_acceleration</text>
<polygon fill="none" stroke="black" points="32.5,-700 32.5,-721 299.5,-721 299.5,-700 32.5,-700"/>
<text text-anchor="start" x="73" y="-706.8" font-family="Times,serif" font-size="14.00">applied_generalized_force</text>
<polygon fill="none" stroke="black" points="299.5,-700 299.5,-721 663.5,-721 663.5,-700 299.5,-700"/>
<text text-anchor="start" x="395.5" y="-706.8" font-family="Times,serif" font-size="14.00">visual_quadrotor1_state</text>
<polygon fill="none" stroke="black" points="32.5,-679 32.5,-700 299.5,-700 299.5,-679 32.5,-679"/>
<text text-anchor="start" x="90.5" y="-685.8" font-family="Times,serif" font-size="14.00">applied_spatial_force</text>
<polygon fill="none" stroke="black" points="299.5,-679 299.5,-700 663.5,-700 663.5,-679 299.5,-679"/>
<text text-anchor="start" x="325" y="-685.8" font-family="Times,serif" font-size="14.00">visual_quadrotor1_generalized_acceleration</text>
<polyline fill="none" stroke="grey" points="32.5,-679 32.5,-28 299.5,-28 "/>
<polygon fill="none" stroke="black" points="299.5,-658 299.5,-679 663.5,-679 663.5,-658 299.5,-658"/>
<text text-anchor="start" x="395.5" y="-664.8" font-family="Times,serif" font-size="14.00">visual_quadrotor2_state</text>
<polygon fill="none" stroke="black" points="299.5,-637 299.5,-658 663.5,-658 663.5,-637 299.5,-637"/>
<text text-anchor="start" x="325" y="-643.8" font-family="Times,serif" font-size="14.00">visual_quadrotor2_generalized_acceleration</text>
<polygon fill="none" stroke="black" points="299.5,-616 299.5,-637 663.5,-637 663.5,-616 299.5,-616"/>
<text text-anchor="start" x="395.5" y="-622.8" font-family="Times,serif" font-size="14.00">visual_quadrotor3_state</text>
<polygon fill="none" stroke="black" points="299.5,-595 299.5,-616 663.5,-616 663.5,-595 299.5,-595"/>
<text text-anchor="start" x="325" y="-601.8" font-family="Times,serif" font-size="14.00">visual_quadrotor3_generalized_acceleration</text>
<polygon fill="none" stroke="black" points="299.5,-574 299.5,-595 663.5,-595 663.5,-574 299.5,-574"/>
<text text-anchor="start" x="395.5" y="-580.8" font-family="Times,serif" font-size="14.00">visual_quadrotor4_state</text>
<polygon fill="none" stroke="black" points="299.5,-553 299.5,-574 663.5,-574 663.5,-553 299.5,-553"/>
<text text-anchor="start" x="325" y="-559.8" font-family="Times,serif" font-size="14.00">visual_quadrotor4_generalized_acceleration</text>
<polygon fill="none" stroke="black" points="299.5,-532 299.5,-553 663.5,-553 663.5,-532 299.5,-532"/>
<text text-anchor="start" x="395.5" y="-538.8" font-family="Times,serif" font-size="14.00">visual_quadrotor5_state</text>
<polygon fill="none" stroke="black" points="299.5,-511 299.5,-532 663.5,-532 663.5,-511 299.5,-511"/>
<text text-anchor="start" x="325" y="-517.8" font-family="Times,serif" font-size="14.00">visual_quadrotor5_generalized_acceleration</text>
<polygon fill="none" stroke="black" points="299.5,-490 299.5,-511 663.5,-511 663.5,-490 299.5,-490"/>
<text text-anchor="start" x="395.5" y="-496.8" font-family="Times,serif" font-size="14.00">visual_quadrotor6_state</text>
<polygon fill="none" stroke="black" points="299.5,-469 299.5,-490 663.5,-490 663.5,-469 299.5,-469"/>
<text text-anchor="start" x="325" y="-475.8" font-family="Times,serif" font-size="14.00">visual_quadrotor6_generalized_acceleration</text>
<polygon fill="none" stroke="black" points="299.5,-448 299.5,-469 663.5,-469 663.5,-448 299.5,-448"/>
<text text-anchor="start" x="395.5" y="-454.8" font-family="Times,serif" font-size="14.00">visual_quadrotor7_state</text>
<polygon fill="none" stroke="black" points="299.5,-427 299.5,-448 663.5,-448 663.5,-427 299.5,-427"/>
<text text-anchor="start" x="325" y="-433.8" font-family="Times,serif" font-size="14.00">visual_quadrotor7_generalized_acceleration</text>
<polygon fill="none" stroke="black" points="299.5,-406 299.5,-427 663.5,-427 663.5,-406 299.5,-406"/>
<text text-anchor="start" x="395.5" y="-412.8" font-family="Times,serif" font-size="14.00">visual_quadrotor8_state</text>
<polygon fill="none" stroke="black" points="299.5,-385 299.5,-406 663.5,-406 663.5,-385 299.5,-385"/>
<text text-anchor="start" x="325" y="-391.8" font-family="Times,serif" font-size="14.00">visual_quadrotor8_generalized_acceleration</text>
<polygon fill="none" stroke="black" points="299.5,-364 299.5,-385 663.5,-385 663.5,-364 299.5,-364"/>
<text text-anchor="start" x="395.5" y="-370.8" font-family="Times,serif" font-size="14.00">visual_quadrotor9_state</text>
<polygon fill="none" stroke="black" points="299.5,-343 299.5,-364 663.5,-364 663.5,-343 299.5,-343"/>
<text text-anchor="start" x="325" y="-349.8" font-family="Times,serif" font-size="14.00">visual_quadrotor9_generalized_acceleration</text>
<polygon fill="none" stroke="black" points="299.5,-322 299.5,-343 663.5,-343 663.5,-322 299.5,-322"/>
<text text-anchor="start" x="307.5" y="-328.8" font-family="Times,serif" font-size="14.00" fill="grey">WorldModelInstance_generalized_contact_forces</text>
<polygon fill="none" stroke="black" points="299.5,-301 299.5,-322 663.5,-322 663.5,-301 299.5,-301"/>
<text text-anchor="start" x="302.5" y="-307.8" font-family="Times,serif" font-size="14.00" fill="grey">DefaultModelInstance_generalized_contact_forces</text>
<polygon fill="none" stroke="black" points="299.5,-280 299.5,-301 663.5,-301 663.5,-280 299.5,-280"/>
<text text-anchor="start" x="346" y="-286.8" font-family="Times,serif" font-size="14.00">quadrotor_generalized_contact_forces</text>
<polygon fill="none" stroke="black" points="299.5,-259 299.5,-280 663.5,-280 663.5,-259 299.5,-259"/>
<text text-anchor="start" x="317" y="-265.8" font-family="Times,serif" font-size="14.00">visual_quadrotor0_generalized_contact_forces</text>
<polygon fill="none" stroke="black" points="299.5,-238 299.5,-259 663.5,-259 663.5,-238 299.5,-238"/>
<text text-anchor="start" x="317" y="-244.8" font-family="Times,serif" font-size="14.00">visual_quadrotor1_generalized_contact_forces</text>
<polygon fill="none" stroke="black" points="299.5,-217 299.5,-238 663.5,-238 663.5,-217 299.5,-217"/>
<text text-anchor="start" x="317" y="-223.8" font-family="Times,serif" font-size="14.00">visual_quadrotor2_generalized_contact_forces</text>
<polygon fill="none" stroke="black" points="299.5,-196 299.5,-217 663.5,-217 663.5,-196 299.5,-196"/>
<text text-anchor="start" x="317" y="-202.8" font-family="Times,serif" font-size="14.00">visual_quadrotor3_generalized_contact_forces</text>
<polygon fill="none" stroke="black" points="299.5,-175 299.5,-196 663.5,-196 663.5,-175 299.5,-175"/>
<text text-anchor="start" x="317" y="-181.8" font-family="Times,serif" font-size="14.00">visual_quadrotor4_generalized_contact_forces</text>
<polygon fill="none" stroke="black" points="299.5,-154 299.5,-175 663.5,-175 663.5,-154 299.5,-154"/>
<text text-anchor="start" x="317" y="-160.8" font-family="Times,serif" font-size="14.00">visual_quadrotor5_generalized_contact_forces</text>
<polygon fill="none" stroke="black" points="299.5,-133 299.5,-154 663.5,-154 663.5,-133 299.5,-133"/>
<text text-anchor="start" x="317" y="-139.8" font-family="Times,serif" font-size="14.00">visual_quadrotor6_generalized_contact_forces</text>
<polygon fill="none" stroke="black" points="299.5,-112 299.5,-133 663.5,-133 663.5,-112 299.5,-112"/>
<text text-anchor="start" x="317" y="-118.8" font-family="Times,serif" font-size="14.00">visual_quadrotor7_generalized_contact_forces</text>
<polygon fill="none" stroke="black" points="299.5,-91 299.5,-112 663.5,-112 663.5,-91 299.5,-91"/>
<text text-anchor="start" x="317" y="-97.8" font-family="Times,serif" font-size="14.00">visual_quadrotor8_generalized_contact_forces</text>
<polygon fill="none" stroke="black" points="299.5,-70 299.5,-91 663.5,-91 663.5,-70 299.5,-70"/>
<text text-anchor="start" x="317" y="-76.8" font-family="Times,serif" font-size="14.00">visual_quadrotor9_generalized_contact_forces</text>
<polygon fill="none" stroke="black" points="299.5,-49 299.5,-70 663.5,-70 663.5,-49 299.5,-49"/>
<text text-anchor="start" x="427" y="-55.8" font-family="Times,serif" font-size="14.00">reaction_forces</text>
<polygon fill="none" stroke="black" points="299.5,-28 299.5,-49 663.5,-49 663.5,-28 299.5,-28"/>
<text text-anchor="start" x="427" y="-34.8" font-family="Times,serif" font-size="14.00">contact_results</text>
</g>
<!-- s3 -->
<g id="node2" class="node">
<title>s3</title>
<polygon fill="none" stroke="black" points="803.5,-1310 803.5,-1344 996.5,-1344 996.5,-1310 803.5,-1310"/>
<text text-anchor="start" x="852" y="-1330.8" font-family="Times,serif" font-weight="bold" font-size="14.00">SceneGraph</text>
<text text-anchor="start" x="829.5" y="-1316.8" font-family="Times,serif" font-size="14.00">name=scene_graph</text>
<polygon fill="none" stroke="black" points="803.5,-1289 803.5,-1310 948.5,-1310 948.5,-1289 803.5,-1289"/>
<text text-anchor="start" x="837.5" y="-1295.8" font-family="Times,serif" font-size="14.00">plant_pose</text>
<polygon fill="none" stroke="black" points="948.5,-1268 948.5,-1310 996.5,-1310 996.5,-1268 948.5,-1268"/>
<text text-anchor="start" x="951.5" y="-1285.3" font-family="Times,serif" font-size="14.00">query</text>
<polygon fill="none" stroke="black" points="803.5,-1268 803.5,-1289 948.5,-1289 948.5,-1268 803.5,-1268"/>
<text text-anchor="start" x="806.5" y="-1274.8" font-family="Times,serif" font-size="14.00">plant_configuration</text>
</g>
<!-- s2&#45;&gt;s3 -->
<g id="edge5" class="edge">
<title>s2:e&#45;&gt;s3:w</title>
<path fill="none" stroke="black" d="M664.5,-1299C722.24,-1299 739.21,-1299 792.17,-1299"/>
<polygon fill="black" stroke="black" points="792.5,-1302.5 802.5,-1299 792.5,-1295.5 792.5,-1302.5"/>
</g>
<!-- s70 -->
<g id="node3" class="node">
<title>s70</title>
<polygon fill="none" stroke="black" points="1533.5,-871 1533.5,-892 1726.5,-892 1726.5,-871 1533.5,-871"/>
<text text-anchor="start" x="1593.5" y="-878.8" font-family="Times,serif" font-weight="bold" font-size="14.00">Propeller</text>
<polygon fill="none" stroke="black" points="1533.5,-850 1533.5,-871 1621.5,-871 1621.5,-850 1533.5,-850"/>
<text text-anchor="start" x="1542.5" y="-856.8" font-family="Times,serif" font-size="14.00">command</text>
<polygon fill="none" stroke="black" points="1621.5,-829 1621.5,-871 1726.5,-871 1726.5,-829 1621.5,-829"/>
<text text-anchor="start" x="1624.5" y="-846.3" font-family="Times,serif" font-size="14.00">spatial_forces</text>
<polygon fill="none" stroke="black" points="1533.5,-829 1533.5,-850 1621.5,-850 1621.5,-829 1533.5,-829"/>
<text text-anchor="start" x="1536.5" y="-835.8" font-family="Times,serif" font-size="14.00">body_poses</text>
</g>
<!-- s2&#45;&gt;s70 -->
<g id="edge4" class="edge">
<title>s2:e&#45;&gt;s70:w</title>
<path fill="none" stroke="black" d="M664.5,-963C1034.07,-963 1130.14,-943.33 1489,-855 1505.25,-851 1510.21,-842.94 1522.55,-840.05"/>
<polygon fill="black" stroke="black" points="1522.92,-843.53 1532.5,-839 1522.19,-836.57 1522.92,-843.53"/>
</g>
<!-- s72 -->
<g id="node5" class="node">
<title>s72</title>
<polygon fill="none" stroke="black" points="793.5,-806 793.5,-827 1006.5,-827 1006.5,-806 793.5,-806"/>
<text text-anchor="start" x="805" y="-813.8" font-family="Times,serif" font-weight="bold" font-size="14.00">src.utils.StateConverter</text>
<polygon fill="none" stroke="black" points="793.5,-785 793.5,-806 884.5,-806 884.5,-785 793.5,-785"/>
<text text-anchor="start" x="796.5" y="-791.8" font-family="Times,serif" font-size="14.00">drone_state</text>
<polygon fill="none" stroke="black" points="884.5,-785 884.5,-806 1006.5,-806 1006.5,-785 884.5,-785"/>
<text text-anchor="start" x="887.5" y="-791.8" font-family="Times,serif" font-size="14.00">drone_state_se3</text>
</g>
<!-- s2&#45;&gt;s72 -->
<g id="edge2" class="edge">
<title>s2:e&#45;&gt;s72:w</title>
<path fill="none" stroke="black" d="M664.5,-795C717.83,-795 733.67,-795 782.31,-795"/>
<polygon fill="black" stroke="black" points="782.5,-798.5 792.5,-795 782.5,-791.5 782.5,-798.5"/>
</g>
<!-- s3&#45;&gt;s2 -->
<g id="edge6" class="edge">
<title>s3:e&#45;&gt;s2:w</title>
<path fill="none" stroke="black" d="M997.5,-1289C1008.62,-1289 1004.52,-1271.7 996.5,-1264 931.92,-1201.95 880.65,-1237.85 795,-1264 731.45,-1283.4 734.55,-1328.1 671,-1347.5 535.29,-1388.93 133.86,-1446.79 32.5,-1347.5 20.11,-1335.36 13.05,-1311.35 22,-1302.44"/>
<polygon fill="black" stroke="black" points="23.29,-1305.69 31.5,-1299 20.91,-1299.11 23.29,-1305.69"/>
</g>
<!-- s74 -->
<g id="node7" class="node">
<title>s74</title>
<polygon fill="none" stroke="black" points="1172.5,-1295 1172.5,-1343 1445.5,-1343 1445.5,-1295 1172.5,-1295"/>
<text text-anchor="start" x="1235.5" y="-1329.8" font-family="Times,serif" font-weight="bold" font-size="14.00">MeshcatVisualizer</text>
<text text-anchor="start" x="1175.5" y="-1315.8" font-family="Times,serif" font-size="14.00">name=meshcat_visualizer(visualizer)</text>
<text text-anchor="start" x="1227.5" y="-1301.8" font-family="Times,serif" font-size="14.00">path=/drake/visualizer</text>
<polygon fill="none" stroke="black" points="1172.5,-1274 1172.5,-1295 1354.5,-1295 1354.5,-1274 1172.5,-1274"/>
<text text-anchor="start" x="1217.5" y="-1280.8" font-family="Times,serif" font-size="14.00">query_object</text>
<polyline fill="none" stroke="grey" points="1354.5,-1274 1445.5,-1274 1445.5,-1295 "/>
</g>
<!-- s3&#45;&gt;s74 -->
<g id="edge12" class="edge">
<title>s3:e&#45;&gt;s74:w</title>
<path fill="none" stroke="black" d="M997.5,-1289C1071.39,-1289 1092.29,-1284.44 1161.41,-1284.03"/>
<polygon fill="black" stroke="black" points="1161.51,-1287.53 1171.5,-1284 1161.49,-1280.53 1161.51,-1287.53"/>
</g>
<!-- s70&#45;&gt;s2 -->
<g id="edge7" class="edge">
<title>s70:e&#45;&gt;s2:w</title>
<path fill="none" stroke="black" d="M1727.5,-850C1738.4,-850 1734.36,-833.05 1726.5,-825.5 1661.9,-763.48 1614.49,-822.18 1525,-825.5 1348.19,-832.06 1303.39,-831.69 1128,-855 939.12,-880.1 834.63,-794.52 707,-936 645.51,-1004.16 738.68,-1285.48 671,-1347.5 618.69,-1395.43 82.7,-1397.63 32.5,-1347.5 8.37,-1323.4 -3.41,-771.22 24.85,-697.99"/>
<polygon fill="black" stroke="black" points="27.8,-699.93 31.5,-690 22.41,-695.45 27.8,-699.93"/>
</g>
<!-- s71 -->
<g id="node4" class="node">
<title>s71</title>
<polygon fill="none" stroke="black" points="1136.5,-760 1136.5,-781 1481.5,-781 1481.5,-760 1136.5,-760"/>
<text text-anchor="start" x="1203.5" y="-767.8" font-family="Times,serif" font-weight="bold" font-size="14.00">src.controllerv3.Controller</text>
<polygon fill="none" stroke="black" points="1136.5,-739 1136.5,-760 1351.5,-760 1351.5,-739 1136.5,-739"/>
<text text-anchor="start" x="1201.5" y="-745.8" font-family="Times,serif" font-size="14.00">drone_state</text>
<polygon fill="none" stroke="black" points="1351.5,-676 1351.5,-760 1481.5,-760 1481.5,-676 1351.5,-676"/>
<text text-anchor="start" x="1354.5" y="-714.3" font-family="Times,serif" font-size="14.00">controller_output</text>
<polygon fill="none" stroke="black" points="1136.5,-718 1136.5,-739 1351.5,-739 1351.5,-718 1136.5,-718"/>
<text text-anchor="start" x="1195.5" y="-724.8" font-family="Times,serif" font-size="14.00">desired_state</text>
<polygon fill="none" stroke="black" points="1136.5,-697 1136.5,-718 1351.5,-718 1351.5,-697 1136.5,-697"/>
<text text-anchor="start" x="1170" y="-703.8" font-family="Times,serif" font-size="14.00">desired_acceleration</text>
<polygon fill="none" stroke="black" points="1136.5,-676 1136.5,-697 1351.5,-697 1351.5,-676 1136.5,-676"/>
<text text-anchor="start" x="1139.5" y="-682.8" font-family="Times,serif" font-size="14.00">desired_angular_acceleration</text>
</g>
<!-- s71&#45;&gt;s70 -->
<g id="edge3" class="edge">
<title>s71:e&#45;&gt;s70:w</title>
<path fill="none" stroke="black" d="M1482.5,-718C1545.62,-718 1474.6,-844.37 1522.53,-858.68"/>
<polygon fill="black" stroke="black" points="1522.13,-862.16 1532.5,-860 1523.04,-855.22 1522.13,-862.16"/>
</g>
<!-- s72&#45;&gt;s71 -->
<g id="edge8" class="edge">
<title>s72:e&#45;&gt;s71:w</title>
<path fill="none" stroke="black" d="M1007.5,-795C1046.42,-795 1055.67,-785.97 1092,-772 1108.59,-765.62 1112.65,-754.9 1125.54,-751.26"/>
<polygon fill="black" stroke="black" points="1126.02,-754.73 1135.5,-750 1125.14,-747.78 1126.02,-754.73"/>
</g>
<!-- s73 -->
<g id="node6" class="node">
<title>s73</title>
<polygon fill="none" stroke="black" points="715.5,-738 715.5,-759 1084.5,-759 1084.5,-738 715.5,-738"/>
<text text-anchor="start" x="747.5" y="-745.8" font-family="Times,serif" font-weight="bold" font-size="14.00">src.utils.TrajectoryDesiredStateSource</text>
<polygon fill="none" stroke="black" points="715.5,-675 715.5,-738 792.5,-738 792.5,-675 715.5,-675"/>
<text text-anchor="start" x="718.5" y="-702.8" font-family="Times,serif" font-size="14.00">trajectory</text>
<polygon fill="none" stroke="black" points="792.5,-717 792.5,-738 1084.5,-738 1084.5,-717 792.5,-717"/>
<text text-anchor="start" x="851.5" y="-723.8" font-family="Times,serif" font-size="14.00">trajectory_desired_state</text>
<polygon fill="none" stroke="black" points="792.5,-696 792.5,-717 1084.5,-717 1084.5,-696 792.5,-696"/>
<text text-anchor="start" x="826" y="-702.8" font-family="Times,serif" font-size="14.00">trajectory_desired_acceleration</text>
<polygon fill="none" stroke="black" points="792.5,-675 792.5,-696 1084.5,-696 1084.5,-675 792.5,-675"/>
<text text-anchor="start" x="795.5" y="-681.8" font-family="Times,serif" font-size="14.00">trajectory_desired_angular_acceleration</text>
</g>
<!-- s73&#45;&gt;s71 -->
<g id="edge9" class="edge">
<title>s73:e&#45;&gt;s71:w</title>
<path fill="none" stroke="black" d="M1085.5,-728C1103.9,-728 1110.88,-728 1125.35,-728"/>
<polygon fill="black" stroke="black" points="1125.5,-731.5 1135.5,-728 1125.5,-724.5 1125.5,-731.5"/>
</g>
<!-- s73&#45;&gt;s71 -->
<g id="edge10" class="edge">
<title>s73:e&#45;&gt;s71:w</title>
<path fill="none" stroke="black" d="M1085.5,-706C1103.91,-706 1110.87,-706.69 1125.35,-706.92"/>
<polygon fill="black" stroke="black" points="1125.47,-710.42 1135.5,-707 1125.53,-703.42 1125.47,-710.42"/>
</g>
<!-- s73&#45;&gt;s71 -->
<g id="edge11" class="edge">
<title>s73:e&#45;&gt;s71:w</title>
<path fill="none" stroke="black" d="M1085.5,-685C1103.91,-685 1110.87,-685.69 1125.35,-685.92"/>
<polygon fill="black" stroke="black" points="1125.47,-689.42 1135.5,-686 1125.53,-682.42 1125.47,-689.42"/>
</g>
<!-- meshcat_in -->
<g id="node8" class="node">
<title>meshcat_in</title>
<ellipse fill="none" stroke="magenta" cx="1629.5" cy="-1309" rx="50.09" ry="18"/>
<text text-anchor="middle" x="1629.5" y="-1305.3" font-family="Times,serif" font-size="14.00">Meshcat</text>
</g>
<!-- s74&#45;&gt;meshcat_in -->
<g id="edge1" class="edge">
<title>s74:e&#45;&gt;meshcat_in</title>
<path fill="none" stroke="magenta" stroke-dasharray="5,2" d="M1454.5,-1309C1492.69,-1309 1535.59,-1309 1569.24,-1309"/>
<polygon fill="magenta" stroke="magenta" points="1569.37,-1312.5 1579.37,-1309 1569.37,-1305.5 1569.37,-1312.5"/>
</g>
</g>
</svg>
