<?xml version="1.0" encoding="UTF-8" standalone="no"?>
<!DOCTYPE svg PUBLIC "-//W3C//DTD SVG 1.1//EN"
 "http://www.w3.org/Graphics/SVG/1.1/DTD/svg11.dtd">
<!-- Generated by graphviz version 2.43.0 (0)
 -->
<!-- Title: _100 Pages: 1 -->
<svg width="1766pt" height="1494pt"
 viewBox="0.00 0.00 1766.00 1493.90" xmlns="http://www.w3.org/2000/svg" xmlns:xlink="http://www.w3.org/1999/xlink">
<g id="graph0" class="graph" transform="scale(1 1) rotate(0) translate(4 1489.9)">
<title>_100</title>
<polygon fill="white" stroke="transparent" points="-4,4 -4,-1489.9 1762,-1489.9 1762,4 -4,4"/>
<g id="clust1" class="cluster">
<title>cluster100diagram</title>
<polygon fill="none" stroke="black" points="8,-8 8,-1477 1750,-1477 1750,-8 8,-8"/>
<text text-anchor="start" x="845" y="-1458.3" font-family="Times,serif" font-weight="bold" font-size="14.00">Diagram</text>
</g>
<g id="clust2" class="cluster">
<title>cluster100subsystems</title>
<polygon fill="none" stroke="white" points="16,-16 16,-1438 1742,-1438 1742,-16 16,-16"/>
</g>
<!-- s2 -->
<g id="node1" class="node">
<title>s2</title>
<polygon fill="none" stroke="black" points="32.5,-1392 32.5,-1426 663.5,-1426 663.5,-1392 32.5,-1392"/>
<text text-anchor="start" x="286.5" y="-1412.8" font-family="Times,serif" font-weight="bold" font-size="14.00">MultibodyPlant</text>
<text text-anchor="start" x="304" y="-1398.8" font-family="Times,serif" font-size="14.00">name=plant</text>
<polygon fill="none" stroke="black" points="32.5,-1371 32.5,-1392 299.5,-1392 299.5,-1371 32.5,-1371"/>
<text text-anchor="start" x="107.5" y="-1377.8" font-family="Times,serif" font-size="14.00">geometry_query</text>
<polygon fill="none" stroke="black" points="299.5,-1371 299.5,-1392 663.5,-1392 663.5,-1371 299.5,-1371"/>
<text text-anchor="start" x="427" y="-1377.8" font-family="Times,serif" font-size="14.00">geometry_pose</text>
<polygon fill="none" stroke="black" points="32.5,-1350 32.5,-1371 299.5,-1371 299.5,-1350 32.5,-1350"/>
<text text-anchor="start" x="55" y="-1356.8" font-family="Times,serif" font-size="14.00" fill="grey">WorldModelInstance_actuation</text>
<polygon fill="none" stroke="black" points="299.5,-1350 299.5,-1371 663.5,-1371 663.5,-1350 299.5,-1350"/>
<text text-anchor="start" x="355.5" y="-1356.8" font-family="Times,serif" font-size="14.00" fill="grey">WorldModelInstance_net_actuation</text>
<polygon fill="none" stroke="black" points="32.5,-1329 32.5,-1350 299.5,-1350 299.5,-1329 32.5,-1329"/>
<text text-anchor="start" x="50" y="-1335.8" font-family="Times,serif" font-size="14.00" fill="grey">DefaultModelInstance_actuation</text>
<polygon fill="none" stroke="black" points="299.5,-1329 299.5,-1350 663.5,-1350 663.5,-1329 299.5,-1329"/>
<text text-anchor="start" x="350.5" y="-1335.8" font-family="Times,serif" font-size="14.00" fill="grey">DefaultModelInstance_net_actuation</text>
<polygon fill="none" stroke="black" points="32.5,-1308 32.5,-1329 299.5,-1329 299.5,-1308 32.5,-1308"/>
<text text-anchor="start" x="93.5" y="-1314.8" font-family="Times,serif" font-size="14.00" fill="grey">quadrotor_actuation</text>
<polygon fill="none" stroke="black" points="299.5,-1308 299.5,-1329 663.5,-1329 663.5,-1308 299.5,-1308"/>
<text text-anchor="start" x="394" y="-1314.8" font-family="Times,serif" font-size="14.00" fill="grey">quadrotor_net_actuation</text>
<polygon fill="none" stroke="black" points="32.5,-1287 32.5,-1308 299.5,-1308 299.5,-1287 32.5,-1287"/>
<text text-anchor="start" x="69" y="-1293.8" font-family="Times,serif" font-size="14.00" fill="grey">visual_quadrotor_actuation</text>
<polygon fill="none" stroke="black" points="299.5,-1287 299.5,-1308 663.5,-1308 663.5,-1287 299.5,-1287"/>
<text text-anchor="start" x="369.5" y="-1293.8" font-family="Times,serif" font-size="14.00" fill="grey">visual_quadrotor_net_actuation</text>
<polygon fill="none" stroke="black" points="32.5,-1266 32.5,-1287 299.5,-1287 299.5,-1266 32.5,-1266"/>
<text text-anchor="start" x="64.5" y="-1272.8" font-family="Times,serif" font-size="14.00" fill="grey">visual_quadrotor0_actuation</text>
<polygon fill="none" stroke="black" points="299.5,-1266 299.5,-1287 663.5,-1287 663.5,-1266 299.5,-1266"/>
<text text-anchor="start" x="365" y="-1272.8" font-family="Times,serif" font-size="14.00" fill="grey">visual_quadrotor0_net_actuation</text>
<polygon fill="none" stroke="black" points="32.5,-1245 32.5,-1266 299.5,-1266 299.5,-1245 32.5,-1245"/>
<text text-anchor="start" x="64.5" y="-1251.8" font-family="Times,serif" font-size="14.00" fill="grey">visual_quadrotor1_actuation</text>
<polygon fill="none" stroke="black" points="299.5,-1245 299.5,-1266 663.5,-1266 663.5,-1245 299.5,-1245"/>
<text text-anchor="start" x="365" y="-1251.8" font-family="Times,serif" font-size="14.00" fill="grey">visual_quadrotor1_net_actuation</text>
<polygon fill="none" stroke="black" points="32.5,-1224 32.5,-1245 299.5,-1245 299.5,-1224 32.5,-1224"/>
<text text-anchor="start" x="64.5" y="-1230.8" font-family="Times,serif" font-size="14.00" fill="grey">visual_quadrotor2_actuation</text>
<polygon fill="none" stroke="black" points="299.5,-1224 299.5,-1245 663.5,-1245 663.5,-1224 299.5,-1224"/>
<text text-anchor="start" x="365" y="-1230.8" font-family="Times,serif" font-size="14.00" fill="grey">visual_quadrotor2_net_actuation</text>
<polygon fill="none" stroke="black" points="32.5,-1203 32.5,-1224 299.5,-1224 299.5,-1203 32.5,-1203"/>
<text text-anchor="start" x="64.5" y="-1209.8" font-family="Times,serif" font-size="14.00" fill="grey">visual_quadrotor3_actuation</text>
<polygon fill="none" stroke="black" points="299.5,-1203 299.5,-1224 663.5,-1224 663.5,-1203 299.5,-1203"/>
<text text-anchor="start" x="365" y="-1209.8" font-family="Times,serif" font-size="14.00" fill="grey">visual_quadrotor3_net_actuation</text>
<polygon fill="none" stroke="black" points="32.5,-1182 32.5,-1203 299.5,-1203 299.5,-1182 32.5,-1182"/>
<text text-anchor="start" x="64.5" y="-1188.8" font-family="Times,serif" font-size="14.00" fill="grey">visual_quadrotor4_actuation</text>
<polygon fill="none" stroke="black" points="299.5,-1182 299.5,-1203 663.5,-1203 663.5,-1182 299.5,-1182"/>
<text text-anchor="start" x="365" y="-1188.8" font-family="Times,serif" font-size="14.00" fill="grey">visual_quadrotor4_net_actuation</text>
<polygon fill="none" stroke="black" points="32.5,-1161 32.5,-1182 299.5,-1182 299.5,-1161 32.5,-1161"/>
<text text-anchor="start" x="64.5" y="-1167.8" font-family="Times,serif" font-size="14.00" fill="grey">visual_quadrotor5_actuation</text>
<polygon fill="none" stroke="black" points="299.5,-1161 299.5,-1182 663.5,-1182 663.5,-1161 299.5,-1161"/>
<text text-anchor="start" x="365" y="-1167.8" font-family="Times,serif" font-size="14.00" fill="grey">visual_quadrotor5_net_actuation</text>
<polygon fill="none" stroke="black" points="32.5,-1140 32.5,-1161 299.5,-1161 299.5,-1140 32.5,-1140"/>
<text text-anchor="start" x="64.5" y="-1146.8" font-family="Times,serif" font-size="14.00" fill="grey">visual_quadrotor6_actuation</text>
<polygon fill="none" stroke="black" points="299.5,-1140 299.5,-1161 663.5,-1161 663.5,-1140 299.5,-1140"/>
<text text-anchor="start" x="365" y="-1146.8" font-family="Times,serif" font-size="14.00" fill="grey">visual_quadrotor6_net_actuation</text>
<polygon fill="none" stroke="black" points="32.5,-1119 32.5,-1140 299.5,-1140 299.5,-1119 32.5,-1119"/>
<text text-anchor="start" x="64.5" y="-1125.8" font-family="Times,serif" font-size="14.00" fill="grey">visual_quadrotor7_actuation</text>
<polygon fill="none" stroke="black" points="299.5,-1119 299.5,-1140 663.5,-1140 663.5,-1119 299.5,-1119"/>
<text text-anchor="start" x="365" y="-1125.8" font-family="Times,serif" font-size="14.00" fill="grey">visual_quadrotor7_net_actuation</text>
<polygon fill="none" stroke="black" points="32.5,-1098 32.5,-1119 299.5,-1119 299.5,-1098 32.5,-1098"/>
<text text-anchor="start" x="64.5" y="-1104.8" font-family="Times,serif" font-size="14.00" fill="grey">visual_quadrotor8_actuation</text>
<polygon fill="none" stroke="black" points="299.5,-1098 299.5,-1119 663.5,-1119 663.5,-1098 299.5,-1098"/>
<text text-anchor="start" x="365" y="-1104.8" font-family="Times,serif" font-size="14.00" fill="grey">visual_quadrotor8_net_actuation</text>
<polygon fill="none" stroke="black" points="32.5,-1077 32.5,-1098 299.5,-1098 299.5,-1077 32.5,-1077"/>
<text text-anchor="start" x="64.5" y="-1083.8" font-family="Times,serif" font-size="14.00" fill="grey">visual_quadrotor9_actuation</text>
<polygon fill="none" stroke="black" points="299.5,-1077 299.5,-1098 663.5,-1098 663.5,-1077 299.5,-1077"/>
<text text-anchor="start" x="365" y="-1083.8" font-family="Times,serif" font-size="14.00" fill="grey">visual_quadrotor9_net_actuation</text>
<polygon fill="none" stroke="black" points="32.5,-1056 32.5,-1077 299.5,-1077 299.5,-1056 32.5,-1056"/>
<text text-anchor="start" x="132.5" y="-1062.8" font-family="Times,serif" font-size="14.00" fill="grey">actuation</text>
<polygon fill="none" stroke="black" points="299.5,-1056 299.5,-1077 663.5,-1077 663.5,-1056 299.5,-1056"/>
<text text-anchor="start" x="433" y="-1062.8" font-family="Times,serif" font-size="14.00" fill="grey">net_actuation</text>
<polygon fill="none" stroke="black" points="32.5,-1035 32.5,-1056 299.5,-1056 299.5,-1035 32.5,-1035"/>
<text text-anchor="start" x="40.5" y="-1041.8" font-family="Times,serif" font-size="14.00" fill="grey">WorldModelInstance_desired_state</text>
<polygon fill="none" stroke="black" points="299.5,-1035 299.5,-1056 663.5,-1056 663.5,-1035 299.5,-1035"/>
<text text-anchor="start" x="463" y="-1041.8" font-family="Times,serif" font-size="14.00">state</text>
<polygon fill="none" stroke="black" points="32.5,-1014 32.5,-1035 299.5,-1035 299.5,-1014 32.5,-1014"/>
<text text-anchor="start" x="35.5" y="-1020.8" font-family="Times,serif" font-size="14.00" fill="grey">DefaultModelInstance_desired_state</text>
<polygon fill="none" stroke="black" points="299.5,-1014 299.5,-1035 663.5,-1035 663.5,-1014 299.5,-1014"/>
<text text-anchor="start" x="440.5" y="-1020.8" font-family="Times,serif" font-size="14.00">body_poses</text>
<polygon fill="none" stroke="black" points="32.5,-993 32.5,-1014 299.5,-1014 299.5,-993 32.5,-993"/>
<text text-anchor="start" x="78.5" y="-999.8" font-family="Times,serif" font-size="14.00" fill="grey">quadrotor_desired_state</text>
<polygon fill="none" stroke="black" points="299.5,-993 299.5,-1014 663.5,-1014 663.5,-993 299.5,-993"/>
<text text-anchor="start" x="420" y="-999.8" font-family="Times,serif" font-size="14.00">spatial_velocities</text>
<polygon fill="none" stroke="black" points="32.5,-972 32.5,-993 299.5,-993 299.5,-972 32.5,-972"/>
<text text-anchor="start" x="54.5" y="-978.8" font-family="Times,serif" font-size="14.00" fill="grey">visual_quadrotor_desired_state</text>
<polygon fill="none" stroke="black" points="299.5,-972 299.5,-993 663.5,-993 663.5,-972 299.5,-972"/>
<text text-anchor="start" x="406.5" y="-978.8" font-family="Times,serif" font-size="14.00">spatial_accelerations</text>
<polygon fill="none" stroke="black" points="32.5,-951 32.5,-972 299.5,-972 299.5,-951 32.5,-951"/>
<text text-anchor="start" x="50" y="-957.8" font-family="Times,serif" font-size="14.00" fill="grey">visual_quadrotor0_desired_state</text>
<polygon fill="none" stroke="black" points="299.5,-951 299.5,-972 663.5,-972 663.5,-951 299.5,-951"/>
<text text-anchor="start" x="392.5" y="-957.8" font-family="Times,serif" font-size="14.00">generalized_acceleration</text>
<polygon fill="none" stroke="black" points="32.5,-930 32.5,-951 299.5,-951 299.5,-930 32.5,-930"/>
<text text-anchor="start" x="50" y="-936.8" font-family="Times,serif" font-size="14.00" fill="grey">visual_quadrotor1_desired_state</text>
<polygon fill="none" stroke="black" points="299.5,-930 299.5,-951 663.5,-951 663.5,-930 299.5,-930"/>
<text text-anchor="start" x="386" y="-936.8" font-family="Times,serif" font-size="14.00" fill="grey">WorldModelInstance_state</text>
<polygon fill="none" stroke="black" points="32.5,-909 32.5,-930 299.5,-930 299.5,-909 32.5,-909"/>
<text text-anchor="start" x="50" y="-915.8" font-family="Times,serif" font-size="14.00" fill="grey">visual_quadrotor2_desired_state</text>
<polygon fill="none" stroke="black" points="299.5,-909 299.5,-930 663.5,-930 663.5,-909 299.5,-909"/>
<text text-anchor="start" x="315.5" y="-915.8" font-family="Times,serif" font-size="14.00" fill="grey">WorldModelInstance_generalized_acceleration</text>
<polygon fill="none" stroke="black" points="32.5,-888 32.5,-909 299.5,-909 299.5,-888 32.5,-888"/>
<text text-anchor="start" x="50" y="-894.8" font-family="Times,serif" font-size="14.00" fill="grey">visual_quadrotor3_desired_state</text>
<polygon fill="none" stroke="black" points="299.5,-888 299.5,-909 663.5,-909 663.5,-888 299.5,-888"/>
<text text-anchor="start" x="381" y="-894.8" font-family="Times,serif" font-size="14.00" fill="grey">DefaultModelInstance_state</text>
<polygon fill="none" stroke="black" points="32.5,-867 32.5,-888 299.5,-888 299.5,-867 32.5,-867"/>
<text text-anchor="start" x="50" y="-873.8" font-family="Times,serif" font-size="14.00" fill="grey">visual_quadrotor4_desired_state</text>
<polygon fill="none" stroke="black" points="299.5,-867 299.5,-888 663.5,-888 663.5,-867 299.5,-867"/>
<text text-anchor="start" x="310.5" y="-873.8" font-family="Times,serif" font-size="14.00" fill="grey">DefaultModelInstance_generalized_acceleration</text>
<polygon fill="none" stroke="black" points="32.5,-846 32.5,-867 299.5,-867 299.5,-846 32.5,-846"/>
<text text-anchor="start" x="50" y="-852.8" font-family="Times,serif" font-size="14.00" fill="grey">visual_quadrotor5_desired_state</text>
<polygon fill="none" stroke="black" points="299.5,-846 299.5,-867 663.5,-867 663.5,-846 299.5,-846"/>
<text text-anchor="start" x="424" y="-852.8" font-family="Times,serif" font-size="14.00">quadrotor_state</text>
<polygon fill="none" stroke="black" points="32.5,-825 32.5,-846 299.5,-846 299.5,-825 32.5,-825"/>
<text text-anchor="start" x="50" y="-831.8" font-family="Times,serif" font-size="14.00" fill="grey">visual_quadrotor6_desired_state</text>
<polygon fill="none" stroke="black" points="299.5,-825 299.5,-846 663.5,-846 663.5,-825 299.5,-825"/>
<text text-anchor="start" x="353.5" y="-831.8" font-family="Times,serif" font-size="14.00">quadrotor_generalized_acceleration</text>
<polygon fill="none" stroke="black" points="32.5,-804 32.5,-825 299.5,-825 299.5,-804 32.5,-804"/>
<text text-anchor="start" x="50" y="-810.8" font-family="Times,serif" font-size="14.00" fill="grey">visual_quadrotor7_desired_state</text>
<polygon fill="none" stroke="black" points="299.5,-804 299.5,-825 663.5,-825 663.5,-804 299.5,-804"/>
<text text-anchor="start" x="400" y="-810.8" font-family="Times,serif" font-size="14.00" fill="grey">visual_quadrotor_state</text>
<polygon fill="none" stroke="black" points="32.5,-783 32.5,-804 299.5,-804 299.5,-783 32.5,-783"/>
<text text-anchor="start" x="50" y="-789.8" font-family="Times,serif" font-size="14.00" fill="grey">visual_quadrotor8_desired_state</text>
<polygon fill="none" stroke="black" points="299.5,-783 299.5,-804 663.5,-804 663.5,-783 299.5,-783"/>
<text text-anchor="start" x="329.5" y="-789.8" font-family="Times,serif" font-size="14.00" fill="grey">visual_quadrotor_generalized_acceleration</text>
<polygon fill="none" stroke="black" points="32.5,-762 32.5,-783 299.5,-783 299.5,-762 32.5,-762"/>
<text text-anchor="start" x="50" y="-768.8" font-family="Times,serif" font-size="14.00" fill="grey">visual_quadrotor9_desired_state</text>
<polygon fill="none" stroke="black" points="299.5,-762 299.5,-783 663.5,-783 663.5,-762 299.5,-762"/>
<text text-anchor="start" x="395.5" y="-768.8" font-family="Times,serif" font-size="14.00">visual_quadrotor0_state</text>
<polygon fill="none" stroke="black" points="32.5,-741 32.5,-762 299.5,-762 299.5,-741 32.5,-741"/>
<text text-anchor="start" x="73" y="-747.8" font-family="Times,serif" font-size="14.00">applied_generalized_force</text>
<polygon fill="none" stroke="black" points="299.5,-741 299.5,-762 663.5,-762 663.5,-741 299.5,-741"/>
<text text-anchor="start" x="325" y="-747.8" font-family="Times,serif" font-size="14.00">visual_quadrotor0_generalized_acceleration</text>
<polygon fill="none" stroke="black" points="32.5,-720 32.5,-741 299.5,-741 299.5,-720 32.5,-720"/>
<text text-anchor="start" x="90.5" y="-726.8" font-family="Times,serif" font-size="14.00">applied_spatial_force</text>
<polygon fill="none" stroke="black" points="299.5,-720 299.5,-741 663.5,-741 663.5,-720 299.5,-720"/>
<text text-anchor="start" x="395.5" y="-726.8" font-family="Times,serif" font-size="14.00">visual_quadrotor1_state</text>
<polyline fill="none" stroke="grey" points="32.5,-720 32.5,-27 299.5,-27 "/>
<polygon fill="none" stroke="black" points="299.5,-699 299.5,-720 663.5,-720 663.5,-699 299.5,-699"/>
<text text-anchor="start" x="325" y="-705.8" font-family="Times,serif" font-size="14.00">visual_quadrotor1_generalized_acceleration</text>
<polygon fill="none" stroke="black" points="299.5,-678 299.5,-699 663.5,-699 663.5,-678 299.5,-678"/>
<text text-anchor="start" x="395.5" y="-684.8" font-family="Times,serif" font-size="14.00">visual_quadrotor2_state</text>
<polygon fill="none" stroke="black" points="299.5,-657 299.5,-678 663.5,-678 663.5,-657 299.5,-657"/>
<text text-anchor="start" x="325" y="-663.8" font-family="Times,serif" font-size="14.00">visual_quadrotor2_generalized_acceleration</text>
<polygon fill="none" stroke="black" points="299.5,-636 299.5,-657 663.5,-657 663.5,-636 299.5,-636"/>
<text text-anchor="start" x="395.5" y="-642.8" font-family="Times,serif" font-size="14.00">visual_quadrotor3_state</text>
<polygon fill="none" stroke="black" points="299.5,-615 299.5,-636 663.5,-636 663.5,-615 299.5,-615"/>
<text text-anchor="start" x="325" y="-621.8" font-family="Times,serif" font-size="14.00">visual_quadrotor3_generalized_acceleration</text>
<polygon fill="none" stroke="black" points="299.5,-594 299.5,-615 663.5,-615 663.5,-594 299.5,-594"/>
<text text-anchor="start" x="395.5" y="-600.8" font-family="Times,serif" font-size="14.00">visual_quadrotor4_state</text>
<polygon fill="none" stroke="black" points="299.5,-573 299.5,-594 663.5,-594 663.5,-573 299.5,-573"/>
<text text-anchor="start" x="325" y="-579.8" font-family="Times,serif" font-size="14.00">visual_quadrotor4_generalized_acceleration</text>
<polygon fill="none" stroke="black" points="299.5,-552 299.5,-573 663.5,-573 663.5,-552 299.5,-552"/>
<text text-anchor="start" x="395.5" y="-558.8" font-family="Times,serif" font-size="14.00">visual_quadrotor5_state</text>
<polygon fill="none" stroke="black" points="299.5,-531 299.5,-552 663.5,-552 663.5,-531 299.5,-531"/>
<text text-anchor="start" x="325" y="-537.8" font-family="Times,serif" font-size="14.00">visual_quadrotor5_generalized_acceleration</text>
<polygon fill="none" stroke="black" points="299.5,-510 299.5,-531 663.5,-531 663.5,-510 299.5,-510"/>
<text text-anchor="start" x="395.5" y="-516.8" font-family="Times,serif" font-size="14.00">visual_quadrotor6_state</text>
<polygon fill="none" stroke="black" points="299.5,-489 299.5,-510 663.5,-510 663.5,-489 299.5,-489"/>
<text text-anchor="start" x="325" y="-495.8" font-family="Times,serif" font-size="14.00">visual_quadrotor6_generalized_acceleration</text>
<polygon fill="none" stroke="black" points="299.5,-468 299.5,-489 663.5,-489 663.5,-468 299.5,-468"/>
<text text-anchor="start" x="395.5" y="-474.8" font-family="Times,serif" font-size="14.00">visual_quadrotor7_state</text>
<polygon fill="none" stroke="black" points="299.5,-447 299.5,-468 663.5,-468 663.5,-447 299.5,-447"/>
<text text-anchor="start" x="325" y="-453.8" font-family="Times,serif" font-size="14.00">visual_quadrotor7_generalized_acceleration</text>
<polygon fill="none" stroke="black" points="299.5,-426 299.5,-447 663.5,-447 663.5,-426 299.5,-426"/>
<text text-anchor="start" x="395.5" y="-432.8" font-family="Times,serif" font-size="14.00">visual_quadrotor8_state</text>
<polygon fill="none" stroke="black" points="299.5,-405 299.5,-426 663.5,-426 663.5,-405 299.5,-405"/>
<text text-anchor="start" x="325" y="-411.8" font-family="Times,serif" font-size="14.00">visual_quadrotor8_generalized_acceleration</text>
<polygon fill="none" stroke="black" points="299.5,-384 299.5,-405 663.5,-405 663.5,-384 299.5,-384"/>
<text text-anchor="start" x="395.5" y="-390.8" font-family="Times,serif" font-size="14.00">visual_quadrotor9_state</text>
<polygon fill="none" stroke="black" points="299.5,-363 299.5,-384 663.5,-384 663.5,-363 299.5,-363"/>
<text text-anchor="start" x="325" y="-369.8" font-family="Times,serif" font-size="14.00">visual_quadrotor9_generalized_acceleration</text>
<polygon fill="none" stroke="black" points="299.5,-342 299.5,-363 663.5,-363 663.5,-342 299.5,-342"/>
<text text-anchor="start" x="307.5" y="-348.8" font-family="Times,serif" font-size="14.00" fill="grey">WorldModelInstance_generalized_contact_forces</text>
<polygon fill="none" stroke="black" points="299.5,-321 299.5,-342 663.5,-342 663.5,-321 299.5,-321"/>
<text text-anchor="start" x="302.5" y="-327.8" font-family="Times,serif" font-size="14.00" fill="grey">DefaultModelInstance_generalized_contact_forces</text>
<polygon fill="none" stroke="black" points="299.5,-300 299.5,-321 663.5,-321 663.5,-300 299.5,-300"/>
<text text-anchor="start" x="346" y="-306.8" font-family="Times,serif" font-size="14.00">quadrotor_generalized_contact_forces</text>
<polygon fill="none" stroke="black" points="299.5,-279 299.5,-300 663.5,-300 663.5,-279 299.5,-279"/>
<text text-anchor="start" x="321.5" y="-285.8" font-family="Times,serif" font-size="14.00" fill="grey">visual_quadrotor_generalized_contact_forces</text>
<polygon fill="none" stroke="black" points="299.5,-258 299.5,-279 663.5,-279 663.5,-258 299.5,-258"/>
<text text-anchor="start" x="317" y="-264.8" font-family="Times,serif" font-size="14.00">visual_quadrotor0_generalized_contact_forces</text>
<polygon fill="none" stroke="black" points="299.5,-237 299.5,-258 663.5,-258 663.5,-237 299.5,-237"/>
<text text-anchor="start" x="317" y="-243.8" font-family="Times,serif" font-size="14.00">visual_quadrotor1_generalized_contact_forces</text>
<polygon fill="none" stroke="black" points="299.5,-216 299.5,-237 663.5,-237 663.5,-216 299.5,-216"/>
<text text-anchor="start" x="317" y="-222.8" font-family="Times,serif" font-size="14.00">visual_quadrotor2_generalized_contact_forces</text>
<polygon fill="none" stroke="black" points="299.5,-195 299.5,-216 663.5,-216 663.5,-195 299.5,-195"/>
<text text-anchor="start" x="317" y="-201.8" font-family="Times,serif" font-size="14.00">visual_quadrotor3_generalized_contact_forces</text>
<polygon fill="none" stroke="black" points="299.5,-174 299.5,-195 663.5,-195 663.5,-174 299.5,-174"/>
<text text-anchor="start" x="317" y="-180.8" font-family="Times,serif" font-size="14.00">visual_quadrotor4_generalized_contact_forces</text>
<polygon fill="none" stroke="black" points="299.5,-153 299.5,-174 663.5,-174 663.5,-153 299.5,-153"/>
<text text-anchor="start" x="317" y="-159.8" font-family="Times,serif" font-size="14.00">visual_quadrotor5_generalized_contact_forces</text>
<polygon fill="none" stroke="black" points="299.5,-132 299.5,-153 663.5,-153 663.5,-132 299.5,-132"/>
<text text-anchor="start" x="317" y="-138.8" font-family="Times,serif" font-size="14.00">visual_quadrotor6_generalized_contact_forces</text>
<polygon fill="none" stroke="black" points="299.5,-111 299.5,-132 663.5,-132 663.5,-111 299.5,-111"/>
<text text-anchor="start" x="317" y="-117.8" font-family="Times,serif" font-size="14.00">visual_quadrotor7_generalized_contact_forces</text>
<polygon fill="none" stroke="black" points="299.5,-90 299.5,-111 663.5,-111 663.5,-90 299.5,-90"/>
<text text-anchor="start" x="317" y="-96.8" font-family="Times,serif" font-size="14.00">visual_quadrotor8_generalized_contact_forces</text>
<polygon fill="none" stroke="black" points="299.5,-69 299.5,-90 663.5,-90 663.5,-69 299.5,-69"/>
<text text-anchor="start" x="317" y="-75.8" font-family="Times,serif" font-size="14.00">visual_quadrotor9_generalized_contact_forces</text>
<polygon fill="none" stroke="black" points="299.5,-48 299.5,-69 663.5,-69 663.5,-48 299.5,-48"/>
<text text-anchor="start" x="427" y="-54.8" font-family="Times,serif" font-size="14.00">reaction_forces</text>
<polygon fill="none" stroke="black" points="299.5,-27 299.5,-48 663.5,-48 663.5,-27 299.5,-27"/>
<text text-anchor="start" x="427" y="-33.8" font-family="Times,serif" font-size="14.00">contact_results</text>
</g>
<!-- s3 -->
<g id="node2" class="node">
<title>s3</title>
<polygon fill="none" stroke="black" points="803.5,-1392 803.5,-1426 996.5,-1426 996.5,-1392 803.5,-1392"/>
<text text-anchor="start" x="852" y="-1412.8" font-family="Times,serif" font-weight="bold" font-size="14.00">SceneGraph</text>
<text text-anchor="start" x="829.5" y="-1398.8" font-family="Times,serif" font-size="14.00">name=scene_graph</text>
<polygon fill="none" stroke="black" points="803.5,-1371 803.5,-1392 948.5,-1392 948.5,-1371 803.5,-1371"/>
<text text-anchor="start" x="837.5" y="-1377.8" font-family="Times,serif" font-size="14.00">plant_pose</text>
<polygon fill="none" stroke="black" points="948.5,-1350 948.5,-1392 996.5,-1392 996.5,-1350 948.5,-1350"/>
<text text-anchor="start" x="951.5" y="-1367.3" font-family="Times,serif" font-size="14.00">query</text>
<polygon fill="none" stroke="black" points="803.5,-1350 803.5,-1371 948.5,-1371 948.5,-1350 803.5,-1350"/>
<text text-anchor="start" x="806.5" y="-1356.8" font-family="Times,serif" font-size="14.00">plant_configuration</text>
</g>
<!-- s2&#45;&gt;s3 -->
<g id="edge8" class="edge">
<title>s2:e&#45;&gt;s3:w</title>
<path fill="none" stroke="black" d="M664.5,-1382C722.24,-1382 739.21,-1381.11 792.17,-1381.01"/>
<polygon fill="black" stroke="black" points="792.5,-1384.51 802.5,-1381 792.5,-1377.51 792.5,-1384.51"/>
</g>
<!-- s75 -->
<g id="node3" class="node">
<title>s75</title>
<polygon fill="none" stroke="black" points="1533.5,-933 1533.5,-954 1726.5,-954 1726.5,-933 1533.5,-933"/>
<text text-anchor="start" x="1593.5" y="-940.8" font-family="Times,serif" font-weight="bold" font-size="14.00">Propeller</text>
<polygon fill="none" stroke="black" points="1533.5,-912 1533.5,-933 1621.5,-933 1621.5,-912 1533.5,-912"/>
<text text-anchor="start" x="1542.5" y="-918.8" font-family="Times,serif" font-size="14.00">command</text>
<polygon fill="none" stroke="black" points="1621.5,-891 1621.5,-933 1726.5,-933 1726.5,-891 1621.5,-891"/>
<text text-anchor="start" x="1624.5" y="-908.3" font-family="Times,serif" font-size="14.00">spatial_forces</text>
<polygon fill="none" stroke="black" points="1533.5,-891 1533.5,-912 1621.5,-912 1621.5,-891 1533.5,-891"/>
<text text-anchor="start" x="1536.5" y="-897.8" font-family="Times,serif" font-size="14.00">body_poses</text>
</g>
<!-- s2&#45;&gt;s75 -->
<g id="edge7" class="edge">
<title>s2:e&#45;&gt;s75:w</title>
<path fill="none" stroke="black" d="M664.5,-1025C1034.07,-1025 1130.14,-1005.33 1489,-917 1505.25,-913 1510.21,-904.94 1522.55,-902.05"/>
<polygon fill="black" stroke="black" points="1522.92,-905.53 1532.5,-901 1522.19,-898.57 1522.92,-905.53"/>
</g>
<!-- s77 -->
<g id="node5" class="node">
<title>s77</title>
<polygon fill="none" stroke="black" points="793.5,-868 793.5,-889 1006.5,-889 1006.5,-868 793.5,-868"/>
<text text-anchor="start" x="805" y="-875.8" font-family="Times,serif" font-weight="bold" font-size="14.00">src.utils.StateConverter</text>
<polygon fill="none" stroke="black" points="793.5,-847 793.5,-868 884.5,-868 884.5,-847 793.5,-847"/>
<text text-anchor="start" x="796.5" y="-853.8" font-family="Times,serif" font-size="14.00">drone_state</text>
<polygon fill="none" stroke="black" points="884.5,-847 884.5,-868 1006.5,-868 1006.5,-847 884.5,-847"/>
<text text-anchor="start" x="887.5" y="-853.8" font-family="Times,serif" font-size="14.00">drone_state_se3</text>
</g>
<!-- s2&#45;&gt;s77 -->
<g id="edge11" class="edge">
<title>s2:e&#45;&gt;s77:w</title>
<path fill="none" stroke="black" d="M664.5,-857C717.83,-857 733.67,-857 782.31,-857"/>
<polygon fill="black" stroke="black" points="782.5,-860.5 792.5,-857 782.5,-853.5 782.5,-860.5"/>
</g>
<!-- s3&#45;&gt;s2 -->
<g id="edge9" class="edge">
<title>s3:e&#45;&gt;s2:w</title>
<path fill="none" stroke="black" d="M997.5,-1371C1008.62,-1371 1004.52,-1353.7 996.5,-1346 931.92,-1283.95 880.58,-1319.61 795,-1346 731.27,-1365.65 734.73,-1410.85 671,-1430.5 535.41,-1472.31 133.86,-1529.79 32.5,-1430.5 20.11,-1418.36 13.05,-1394.35 22,-1385.44"/>
<polygon fill="black" stroke="black" points="23.29,-1388.69 31.5,-1382 20.91,-1382.11 23.29,-1388.69"/>
</g>
<!-- s79 -->
<g id="node7" class="node">
<title>s79</title>
<polygon fill="none" stroke="black" points="1172.5,-1377 1172.5,-1425 1445.5,-1425 1445.5,-1377 1172.5,-1377"/>
<text text-anchor="start" x="1235.5" y="-1411.8" font-family="Times,serif" font-weight="bold" font-size="14.00">MeshcatVisualizer</text>
<text text-anchor="start" x="1175.5" y="-1397.8" font-family="Times,serif" font-size="14.00">name=meshcat_visualizer(visualizer)</text>
<text text-anchor="start" x="1227.5" y="-1383.8" font-family="Times,serif" font-size="14.00">path=/drake/visualizer</text>
<polygon fill="none" stroke="black" points="1172.5,-1356 1172.5,-1377 1354.5,-1377 1354.5,-1356 1172.5,-1356"/>
<text text-anchor="start" x="1217.5" y="-1362.8" font-family="Times,serif" font-size="14.00">query_object</text>
<polyline fill="none" stroke="grey" points="1354.5,-1356 1445.5,-1356 1445.5,-1377 "/>
</g>
<!-- s3&#45;&gt;s79 -->
<g id="edge12" class="edge">
<title>s3:e&#45;&gt;s79:w</title>
<path fill="none" stroke="black" d="M997.5,-1371C1071.39,-1371 1092.29,-1366.44 1161.41,-1366.03"/>
<polygon fill="black" stroke="black" points="1161.51,-1369.53 1171.5,-1366 1161.49,-1362.53 1161.51,-1369.53"/>
</g>
<!-- s75&#45;&gt;s2 -->
<g id="edge10" class="edge">
<title>s75:e&#45;&gt;s2:w</title>
<path fill="none" stroke="black" d="M1727.5,-912C1738.4,-912 1734.36,-895.05 1726.5,-887.5 1661.9,-825.48 1614.49,-884.18 1525,-887.5 1348.19,-894.06 1303.39,-893.69 1128,-917 939.12,-942.1 834.33,-856.25 707,-998 642.55,-1069.75 741.97,-1365.19 671,-1430.5 618.8,-1478.54 82.7,-1480.63 32.5,-1430.5 6.72,-1404.76 -5.76,-812.49 24.81,-738.55"/>
<polygon fill="black" stroke="black" points="27.49,-740.81 31.5,-731 22.25,-736.16 27.49,-740.81"/>
</g>
<!-- s76 -->
<g id="node4" class="node">
<title>s76</title>
<polygon fill="none" stroke="black" points="1136.5,-822 1136.5,-843 1481.5,-843 1481.5,-822 1136.5,-822"/>
<text text-anchor="start" x="1203.5" y="-829.8" font-family="Times,serif" font-weight="bold" font-size="14.00">src.controllerv3.Controller</text>
<polygon fill="none" stroke="black" points="1136.5,-801 1136.5,-822 1351.5,-822 1351.5,-801 1136.5,-801"/>
<text text-anchor="start" x="1201.5" y="-807.8" font-family="Times,serif" font-size="14.00">drone_state</text>
<polygon fill="none" stroke="black" points="1351.5,-738 1351.5,-822 1481.5,-822 1481.5,-738 1351.5,-738"/>
<text text-anchor="start" x="1354.5" y="-776.3" font-family="Times,serif" font-size="14.00">controller_output</text>
<polygon fill="none" stroke="black" points="1136.5,-780 1136.5,-801 1351.5,-801 1351.5,-780 1136.5,-780"/>
<text text-anchor="start" x="1195.5" y="-786.8" font-family="Times,serif" font-size="14.00">desired_state</text>
<polygon fill="none" stroke="black" points="1136.5,-759 1136.5,-780 1351.5,-780 1351.5,-759 1136.5,-759"/>
<text text-anchor="start" x="1170" y="-765.8" font-family="Times,serif" font-size="14.00">desired_acceleration</text>
<polygon fill="none" stroke="black" points="1136.5,-738 1136.5,-759 1351.5,-759 1351.5,-738 1136.5,-738"/>
<text text-anchor="start" x="1139.5" y="-744.8" font-family="Times,serif" font-size="14.00">desired_angular_acceleration</text>
</g>
<!-- s76&#45;&gt;s75 -->
<g id="edge6" class="edge">
<title>s76:e&#45;&gt;s75:w</title>
<path fill="none" stroke="black" d="M1482.5,-780C1545.62,-780 1474.6,-906.37 1522.53,-920.68"/>
<polygon fill="black" stroke="black" points="1522.13,-924.16 1532.5,-922 1523.04,-917.22 1522.13,-924.16"/>
</g>
<!-- s77&#45;&gt;s76 -->
<g id="edge2" class="edge">
<title>s77:e&#45;&gt;s76:w</title>
<path fill="none" stroke="black" d="M1007.5,-857C1046.42,-857 1055.67,-847.97 1092,-834 1108.59,-827.62 1112.65,-816.9 1125.54,-813.26"/>
<polygon fill="black" stroke="black" points="1126.02,-816.73 1135.5,-812 1125.14,-809.78 1126.02,-816.73"/>
</g>
<!-- s78 -->
<g id="node6" class="node">
<title>s78</title>
<polygon fill="none" stroke="black" points="715.5,-800 715.5,-821 1084.5,-821 1084.5,-800 715.5,-800"/>
<text text-anchor="start" x="747.5" y="-807.8" font-family="Times,serif" font-weight="bold" font-size="14.00">src.utils.TrajectoryDesiredStateSource</text>
<polygon fill="none" stroke="black" points="715.5,-737 715.5,-800 792.5,-800 792.5,-737 715.5,-737"/>
<text text-anchor="start" x="718.5" y="-764.8" font-family="Times,serif" font-size="14.00">trajectory</text>
<polygon fill="none" stroke="black" points="792.5,-779 792.5,-800 1084.5,-800 1084.5,-779 792.5,-779"/>
<text text-anchor="start" x="851.5" y="-785.8" font-family="Times,serif" font-size="14.00">trajectory_desired_state</text>
<polygon fill="none" stroke="black" points="792.5,-758 792.5,-779 1084.5,-779 1084.5,-758 792.5,-758"/>
<text text-anchor="start" x="826" y="-764.8" font-family="Times,serif" font-size="14.00">trajectory_desired_acceleration</text>
<polygon fill="none" stroke="black" points="792.5,-737 792.5,-758 1084.5,-758 1084.5,-737 792.5,-737"/>
<text text-anchor="start" x="795.5" y="-743.8" font-family="Times,serif" font-size="14.00">trajectory_desired_angular_acceleration</text>
</g>
<!-- s78&#45;&gt;s76 -->
<g id="edge3" class="edge">
<title>s78:e&#45;&gt;s76:w</title>
<path fill="none" stroke="black" d="M1085.5,-790C1103.9,-790 1110.88,-790 1125.35,-790"/>
<polygon fill="black" stroke="black" points="1125.5,-793.5 1135.5,-790 1125.5,-786.5 1125.5,-793.5"/>
</g>
<!-- s78&#45;&gt;s76 -->
<g id="edge4" class="edge">
<title>s78:e&#45;&gt;s76:w</title>
<path fill="none" stroke="black" d="M1085.5,-768C1103.91,-768 1110.87,-768.69 1125.35,-768.92"/>
<polygon fill="black" stroke="black" points="1125.47,-772.42 1135.5,-769 1125.53,-765.42 1125.47,-772.42"/>
</g>
<!-- s78&#45;&gt;s76 -->
<g id="edge5" class="edge">
<title>s78:e&#45;&gt;s76:w</title>
<path fill="none" stroke="black" d="M1085.5,-747C1103.91,-747 1110.87,-747.69 1125.35,-747.92"/>
<polygon fill="black" stroke="black" points="1125.47,-751.42 1135.5,-748 1125.53,-744.42 1125.47,-751.42"/>
</g>
<!-- meshcat_in -->
<g id="node8" class="node">
<title>meshcat_in</title>
<ellipse fill="none" stroke="magenta" cx="1629.5" cy="-1391" rx="50.09" ry="18"/>
<text text-anchor="middle" x="1629.5" y="-1387.3" font-family="Times,serif" font-size="14.00">Meshcat</text>
</g>
<!-- s79&#45;&gt;meshcat_in -->
<g id="edge1" class="edge">
<title>s79:e&#45;&gt;meshcat_in</title>
<path fill="none" stroke="magenta" stroke-dasharray="5,2" d="M1454.5,-1391C1492.69,-1391 1535.59,-1391 1569.24,-1391"/>
<polygon fill="magenta" stroke="magenta" points="1569.37,-1394.5 1579.37,-1391 1569.37,-1387.5 1569.37,-1394.5"/>
</g>
</g>
</svg>
