<?xml version="1.0" encoding="UTF-8" standalone="no"?>
<!DOCTYPE svg PUBLIC "-//W3C//DTD SVG 1.1//EN"
 "http://www.w3.org/Graphics/SVG/1.1/DTD/svg11.dtd">
<!-- Generated by graphviz version 2.43.0 (0)
 -->
<!-- Title: _60 Pages: 1 -->
<svg width="1766pt" height="655pt"
 viewBox="0.00 0.00 1766.00 655.00" xmlns="http://www.w3.org/2000/svg" xmlns:xlink="http://www.w3.org/1999/xlink">
<g id="graph0" class="graph" transform="scale(1 1) rotate(0) translate(4 651)">
<title>_60</title>
<polygon fill="white" stroke="transparent" points="-4,4 -4,-651 1762,-651 1762,4 -4,4"/>
<g id="clust1" class="cluster">
<title>cluster60diagram</title>
<polygon fill="none" stroke="black" points="8,-8 8,-639 1750,-639 1750,-8 8,-8"/>
<text text-anchor="start" x="845" y="-620.3" font-family="Times,serif" font-weight="bold" font-size="14.00">Diagram</text>
</g>
<g id="clust2" class="cluster">
<title>cluster60subsystems</title>
<polygon fill="none" stroke="white" points="16,-16 16,-600 1742,-600 1742,-16 16,-16"/>
</g>
<!-- s2 -->
<g id="node1" class="node">
<title>s2</title>
<polygon fill="none" stroke="black" points="32.5,-553 32.5,-587 663.5,-587 663.5,-553 32.5,-553"/>
<text text-anchor="start" x="286.5" y="-573.8" font-family="Times,serif" font-weight="bold" font-size="14.00">MultibodyPlant</text>
<text text-anchor="start" x="304" y="-559.8" font-family="Times,serif" font-size="14.00">name=plant</text>
<polygon fill="none" stroke="black" points="32.5,-532 32.5,-553 299.5,-553 299.5,-532 32.5,-532"/>
<text text-anchor="start" x="107.5" y="-538.8" font-family="Times,serif" font-size="14.00">geometry_query</text>
<polygon fill="none" stroke="black" points="299.5,-532 299.5,-553 663.5,-553 663.5,-532 299.5,-532"/>
<text text-anchor="start" x="427" y="-538.8" font-family="Times,serif" font-size="14.00">geometry_pose</text>
<polygon fill="none" stroke="black" points="32.5,-511 32.5,-532 299.5,-532 299.5,-511 32.5,-511"/>
<text text-anchor="start" x="55" y="-517.8" font-family="Times,serif" font-size="14.00" fill="grey">WorldModelInstance_actuation</text>
<polygon fill="none" stroke="black" points="299.5,-511 299.5,-532 663.5,-532 663.5,-511 299.5,-511"/>
<text text-anchor="start" x="355.5" y="-517.8" font-family="Times,serif" font-size="14.00" fill="grey">WorldModelInstance_net_actuation</text>
<polygon fill="none" stroke="black" points="32.5,-490 32.5,-511 299.5,-511 299.5,-490 32.5,-490"/>
<text text-anchor="start" x="50" y="-496.8" font-family="Times,serif" font-size="14.00" fill="grey">DefaultModelInstance_actuation</text>
<polygon fill="none" stroke="black" points="299.5,-490 299.5,-511 663.5,-511 663.5,-490 299.5,-490"/>
<text text-anchor="start" x="350.5" y="-496.8" font-family="Times,serif" font-size="14.00" fill="grey">DefaultModelInstance_net_actuation</text>
<polygon fill="none" stroke="black" points="32.5,-469 32.5,-490 299.5,-490 299.5,-469 32.5,-469"/>
<text text-anchor="start" x="93.5" y="-475.8" font-family="Times,serif" font-size="14.00" fill="grey">quadrotor_actuation</text>
<polygon fill="none" stroke="black" points="299.5,-469 299.5,-490 663.5,-490 663.5,-469 299.5,-469"/>
<text text-anchor="start" x="394" y="-475.8" font-family="Times,serif" font-size="14.00" fill="grey">quadrotor_net_actuation</text>
<polygon fill="none" stroke="black" points="32.5,-448 32.5,-469 299.5,-469 299.5,-448 32.5,-448"/>
<text text-anchor="start" x="69" y="-454.8" font-family="Times,serif" font-size="14.00" fill="grey">visual_quadrotor_actuation</text>
<polygon fill="none" stroke="black" points="299.5,-448 299.5,-469 663.5,-469 663.5,-448 299.5,-448"/>
<text text-anchor="start" x="369.5" y="-454.8" font-family="Times,serif" font-size="14.00" fill="grey">visual_quadrotor_net_actuation</text>
<polygon fill="none" stroke="black" points="32.5,-427 32.5,-448 299.5,-448 299.5,-427 32.5,-427"/>
<text text-anchor="start" x="132.5" y="-433.8" font-family="Times,serif" font-size="14.00" fill="grey">actuation</text>
<polygon fill="none" stroke="black" points="299.5,-427 299.5,-448 663.5,-448 663.5,-427 299.5,-427"/>
<text text-anchor="start" x="433" y="-433.8" font-family="Times,serif" font-size="14.00" fill="grey">net_actuation</text>
<polygon fill="none" stroke="black" points="32.5,-406 32.5,-427 299.5,-427 299.5,-406 32.5,-406"/>
<text text-anchor="start" x="40.5" y="-412.8" font-family="Times,serif" font-size="14.00" fill="grey">WorldModelInstance_desired_state</text>
<polygon fill="none" stroke="black" points="299.5,-406 299.5,-427 663.5,-427 663.5,-406 299.5,-406"/>
<text text-anchor="start" x="463" y="-412.8" font-family="Times,serif" font-size="14.00">state</text>
<polygon fill="none" stroke="black" points="32.5,-385 32.5,-406 299.5,-406 299.5,-385 32.5,-385"/>
<text text-anchor="start" x="35.5" y="-391.8" font-family="Times,serif" font-size="14.00" fill="grey">DefaultModelInstance_desired_state</text>
<polygon fill="none" stroke="black" points="299.5,-385 299.5,-406 663.5,-406 663.5,-385 299.5,-385"/>
<text text-anchor="start" x="440.5" y="-391.8" font-family="Times,serif" font-size="14.00">body_poses</text>
<polygon fill="none" stroke="black" points="32.5,-364 32.5,-385 299.5,-385 299.5,-364 32.5,-364"/>
<text text-anchor="start" x="78.5" y="-370.8" font-family="Times,serif" font-size="14.00" fill="grey">quadrotor_desired_state</text>
<polygon fill="none" stroke="black" points="299.5,-364 299.5,-385 663.5,-385 663.5,-364 299.5,-364"/>
<text text-anchor="start" x="420" y="-370.8" font-family="Times,serif" font-size="14.00">spatial_velocities</text>
<polygon fill="none" stroke="black" points="32.5,-343 32.5,-364 299.5,-364 299.5,-343 32.5,-343"/>
<text text-anchor="start" x="54.5" y="-349.8" font-family="Times,serif" font-size="14.00" fill="grey">visual_quadrotor_desired_state</text>
<polygon fill="none" stroke="black" points="299.5,-343 299.5,-364 663.5,-364 663.5,-343 299.5,-343"/>
<text text-anchor="start" x="406.5" y="-349.8" font-family="Times,serif" font-size="14.00">spatial_accelerations</text>
<polygon fill="none" stroke="black" points="32.5,-322 32.5,-343 299.5,-343 299.5,-322 32.5,-322"/>
<text text-anchor="start" x="73" y="-328.8" font-family="Times,serif" font-size="14.00">applied_generalized_force</text>
<polygon fill="none" stroke="black" points="299.5,-322 299.5,-343 663.5,-343 663.5,-322 299.5,-322"/>
<text text-anchor="start" x="392.5" y="-328.8" font-family="Times,serif" font-size="14.00">generalized_acceleration</text>
<polygon fill="none" stroke="black" points="32.5,-301 32.5,-322 299.5,-322 299.5,-301 32.5,-301"/>
<text text-anchor="start" x="90.5" y="-307.8" font-family="Times,serif" font-size="14.00">applied_spatial_force</text>
<polygon fill="none" stroke="black" points="299.5,-301 299.5,-322 663.5,-322 663.5,-301 299.5,-301"/>
<text text-anchor="start" x="386" y="-307.8" font-family="Times,serif" font-size="14.00" fill="grey">WorldModelInstance_state</text>
<polyline fill="none" stroke="grey" points="32.5,-301 32.5,-28 299.5,-28 "/>
<polygon fill="none" stroke="black" points="299.5,-280 299.5,-301 663.5,-301 663.5,-280 299.5,-280"/>
<text text-anchor="start" x="315.5" y="-286.8" font-family="Times,serif" font-size="14.00" fill="grey">WorldModelInstance_generalized_acceleration</text>
<polygon fill="none" stroke="black" points="299.5,-259 299.5,-280 663.5,-280 663.5,-259 299.5,-259"/>
<text text-anchor="start" x="381" y="-265.8" font-family="Times,serif" font-size="14.00" fill="grey">DefaultModelInstance_state</text>
<polygon fill="none" stroke="black" points="299.5,-238 299.5,-259 663.5,-259 663.5,-238 299.5,-238"/>
<text text-anchor="start" x="310.5" y="-244.8" font-family="Times,serif" font-size="14.00" fill="grey">DefaultModelInstance_generalized_acceleration</text>
<polygon fill="none" stroke="black" points="299.5,-217 299.5,-238 663.5,-238 663.5,-217 299.5,-217"/>
<text text-anchor="start" x="424" y="-223.8" font-family="Times,serif" font-size="14.00">quadrotor_state</text>
<polygon fill="none" stroke="black" points="299.5,-196 299.5,-217 663.5,-217 663.5,-196 299.5,-196"/>
<text text-anchor="start" x="353.5" y="-202.8" font-family="Times,serif" font-size="14.00">quadrotor_generalized_acceleration</text>
<polygon fill="none" stroke="black" points="299.5,-175 299.5,-196 663.5,-196 663.5,-175 299.5,-175"/>
<text text-anchor="start" x="400" y="-181.8" font-family="Times,serif" font-size="14.00" fill="grey">visual_quadrotor_state</text>
<polygon fill="none" stroke="black" points="299.5,-154 299.5,-175 663.5,-175 663.5,-154 299.5,-154"/>
<text text-anchor="start" x="329.5" y="-160.8" font-family="Times,serif" font-size="14.00" fill="grey">visual_quadrotor_generalized_acceleration</text>
<polygon fill="none" stroke="black" points="299.5,-133 299.5,-154 663.5,-154 663.5,-133 299.5,-133"/>
<text text-anchor="start" x="307.5" y="-139.8" font-family="Times,serif" font-size="14.00" fill="grey">WorldModelInstance_generalized_contact_forces</text>
<polygon fill="none" stroke="black" points="299.5,-112 299.5,-133 663.5,-133 663.5,-112 299.5,-112"/>
<text text-anchor="start" x="302.5" y="-118.8" font-family="Times,serif" font-size="14.00" fill="grey">DefaultModelInstance_generalized_contact_forces</text>
<polygon fill="none" stroke="black" points="299.5,-91 299.5,-112 663.5,-112 663.5,-91 299.5,-91"/>
<text text-anchor="start" x="346" y="-97.8" font-family="Times,serif" font-size="14.00">quadrotor_generalized_contact_forces</text>
<polygon fill="none" stroke="black" points="299.5,-70 299.5,-91 663.5,-91 663.5,-70 299.5,-70"/>
<text text-anchor="start" x="321.5" y="-76.8" font-family="Times,serif" font-size="14.00" fill="grey">visual_quadrotor_generalized_contact_forces</text>
<polygon fill="none" stroke="black" points="299.5,-49 299.5,-70 663.5,-70 663.5,-49 299.5,-49"/>
<text text-anchor="start" x="427" y="-55.8" font-family="Times,serif" font-size="14.00">reaction_forces</text>
<polygon fill="none" stroke="black" points="299.5,-28 299.5,-49 663.5,-49 663.5,-28 299.5,-28"/>
<text text-anchor="start" x="427" y="-34.8" font-family="Times,serif" font-size="14.00">contact_results</text>
</g>
<!-- s3 -->
<g id="node2" class="node">
<title>s3</title>
<polygon fill="none" stroke="black" points="803.5,-554 803.5,-588 996.5,-588 996.5,-554 803.5,-554"/>
<text text-anchor="start" x="852" y="-574.8" font-family="Times,serif" font-weight="bold" font-size="14.00">SceneGraph</text>
<text text-anchor="start" x="829.5" y="-560.8" font-family="Times,serif" font-size="14.00">name=scene_graph</text>
<polygon fill="none" stroke="black" points="803.5,-533 803.5,-554 948.5,-554 948.5,-533 803.5,-533"/>
<text text-anchor="start" x="837.5" y="-539.8" font-family="Times,serif" font-size="14.00">plant_pose</text>
<polygon fill="none" stroke="black" points="948.5,-512 948.5,-554 996.5,-554 996.5,-512 948.5,-512"/>
<text text-anchor="start" x="951.5" y="-529.3" font-family="Times,serif" font-size="14.00">query</text>
<polygon fill="none" stroke="black" points="803.5,-512 803.5,-533 948.5,-533 948.5,-512 803.5,-512"/>
<text text-anchor="start" x="806.5" y="-518.8" font-family="Times,serif" font-size="14.00">plant_configuration</text>
</g>
<!-- s2&#45;&gt;s3 -->
<g id="edge11" class="edge">
<title>s2:e&#45;&gt;s3:w</title>
<path fill="none" stroke="black" d="M664.5,-543C722.24,-543 739.21,-543 792.17,-543"/>
<polygon fill="black" stroke="black" points="792.5,-546.5 802.5,-543 792.5,-539.5 792.5,-546.5"/>
</g>
<!-- s35 -->
<g id="node3" class="node">
<title>s35</title>
<polygon fill="none" stroke="black" points="1533.5,-333 1533.5,-354 1726.5,-354 1726.5,-333 1533.5,-333"/>
<text text-anchor="start" x="1593.5" y="-340.8" font-family="Times,serif" font-weight="bold" font-size="14.00">Propeller</text>
<polygon fill="none" stroke="black" points="1533.5,-312 1533.5,-333 1621.5,-333 1621.5,-312 1533.5,-312"/>
<text text-anchor="start" x="1542.5" y="-318.8" font-family="Times,serif" font-size="14.00">command</text>
<polygon fill="none" stroke="black" points="1621.5,-291 1621.5,-333 1726.5,-333 1726.5,-291 1621.5,-291"/>
<text text-anchor="start" x="1624.5" y="-308.3" font-family="Times,serif" font-size="14.00">spatial_forces</text>
<polygon fill="none" stroke="black" points="1533.5,-291 1533.5,-312 1621.5,-312 1621.5,-291 1533.5,-291"/>
<text text-anchor="start" x="1536.5" y="-297.8" font-family="Times,serif" font-size="14.00">body_poses</text>
</g>
<!-- s2&#45;&gt;s35 -->
<g id="edge10" class="edge">
<title>s2:e&#45;&gt;s35:w</title>
<path fill="none" stroke="black" d="M664.5,-396C1049.17,-396 1142.78,-302.66 1522.34,-301.02"/>
<polygon fill="black" stroke="black" points="1522.51,-304.52 1532.5,-301 1522.49,-297.52 1522.51,-304.52"/>
</g>
<!-- s37 -->
<g id="node5" class="node">
<title>s37</title>
<polygon fill="none" stroke="black" points="793.5,-253 793.5,-274 1006.5,-274 1006.5,-253 793.5,-253"/>
<text text-anchor="start" x="805" y="-260.8" font-family="Times,serif" font-weight="bold" font-size="14.00">src.utils.StateConverter</text>
<polygon fill="none" stroke="black" points="793.5,-232 793.5,-253 884.5,-253 884.5,-232 793.5,-232"/>
<text text-anchor="start" x="796.5" y="-238.8" font-family="Times,serif" font-size="14.00">drone_state</text>
<polygon fill="none" stroke="black" points="884.5,-232 884.5,-253 1006.5,-253 1006.5,-232 884.5,-232"/>
<text text-anchor="start" x="887.5" y="-238.8" font-family="Times,serif" font-size="14.00">drone_state_se3</text>
</g>
<!-- s2&#45;&gt;s37 -->
<g id="edge2" class="edge">
<title>s2:e&#45;&gt;s37:w</title>
<path fill="none" stroke="black" d="M664.5,-227C718.2,-227 733.37,-240.18 782.25,-241.83"/>
<polygon fill="black" stroke="black" points="782.44,-245.34 792.5,-242 782.56,-238.34 782.44,-245.34"/>
</g>
<!-- s3&#45;&gt;s2 -->
<g id="edge7" class="edge">
<title>s3:e&#45;&gt;s2:w</title>
<path fill="none" stroke="black" d="M997.5,-533C1008.62,-533 1004.52,-515.7 996.5,-508 931.92,-445.95 880.65,-481.85 795,-508 731.45,-527.4 734.55,-572.1 671,-591.5 535.29,-632.93 133.86,-690.79 32.5,-591.5 20.11,-579.36 13.05,-555.35 22,-546.44"/>
<polygon fill="black" stroke="black" points="23.29,-549.69 31.5,-543 20.91,-543.11 23.29,-549.69"/>
</g>
<!-- s39 -->
<g id="node7" class="node">
<title>s39</title>
<polygon fill="none" stroke="black" points="1172.5,-539 1172.5,-587 1445.5,-587 1445.5,-539 1172.5,-539"/>
<text text-anchor="start" x="1235.5" y="-573.8" font-family="Times,serif" font-weight="bold" font-size="14.00">MeshcatVisualizer</text>
<text text-anchor="start" x="1175.5" y="-559.8" font-family="Times,serif" font-size="14.00">name=meshcat_visualizer(visualizer)</text>
<text text-anchor="start" x="1227.5" y="-545.8" font-family="Times,serif" font-size="14.00">path=/drake/visualizer</text>
<polygon fill="none" stroke="black" points="1172.5,-518 1172.5,-539 1354.5,-539 1354.5,-518 1172.5,-518"/>
<text text-anchor="start" x="1217.5" y="-524.8" font-family="Times,serif" font-size="14.00">query_object</text>
<polyline fill="none" stroke="grey" points="1354.5,-518 1445.5,-518 1445.5,-539 "/>
</g>
<!-- s3&#45;&gt;s39 -->
<g id="edge12" class="edge">
<title>s3:e&#45;&gt;s39:w</title>
<path fill="none" stroke="black" d="M997.5,-533C1071.39,-533 1092.29,-528.44 1161.41,-528.03"/>
<polygon fill="black" stroke="black" points="1161.51,-531.53 1171.5,-528 1161.49,-524.53 1161.51,-531.53"/>
</g>
<!-- s35&#45;&gt;s2 -->
<g id="edge8" class="edge">
<title>s35:e&#45;&gt;s2:w</title>
<path fill="none" stroke="black" d="M1727.5,-312C1738.4,-312 1734.36,-295.05 1726.5,-287.5 1661.9,-225.48 1614.47,-283.6 1525,-287.5 1433.85,-291.48 773.62,-296.66 707,-359 630.65,-430.44 750.39,-523.45 671,-591.5 617.13,-637.67 82.75,-641.58 32.5,-591.5 12.61,-571.68 2.48,-359.14 23.69,-318.65"/>
<polygon fill="black" stroke="black" points="26.15,-321.15 31.5,-312 21.62,-315.81 26.15,-321.15"/>
</g>
<!-- s36 -->
<g id="node4" class="node">
<title>s36</title>
<polygon fill="none" stroke="black" points="1136.5,-207 1136.5,-228 1481.5,-228 1481.5,-207 1136.5,-207"/>
<text text-anchor="start" x="1203.5" y="-214.8" font-family="Times,serif" font-weight="bold" font-size="14.00">src.controllerv3.Controller</text>
<polygon fill="none" stroke="black" points="1136.5,-186 1136.5,-207 1351.5,-207 1351.5,-186 1136.5,-186"/>
<text text-anchor="start" x="1201.5" y="-192.8" font-family="Times,serif" font-size="14.00">drone_state</text>
<polygon fill="none" stroke="black" points="1351.5,-123 1351.5,-207 1481.5,-207 1481.5,-123 1351.5,-123"/>
<text text-anchor="start" x="1354.5" y="-161.3" font-family="Times,serif" font-size="14.00">controller_output</text>
<polygon fill="none" stroke="black" points="1136.5,-165 1136.5,-186 1351.5,-186 1351.5,-165 1136.5,-165"/>
<text text-anchor="start" x="1195.5" y="-171.8" font-family="Times,serif" font-size="14.00">desired_state</text>
<polygon fill="none" stroke="black" points="1136.5,-144 1136.5,-165 1351.5,-165 1351.5,-144 1136.5,-144"/>
<text text-anchor="start" x="1170" y="-150.8" font-family="Times,serif" font-size="14.00">desired_acceleration</text>
<polygon fill="none" stroke="black" points="1136.5,-123 1136.5,-144 1351.5,-144 1351.5,-123 1136.5,-123"/>
<text text-anchor="start" x="1139.5" y="-129.8" font-family="Times,serif" font-size="14.00">desired_angular_acceleration</text>
</g>
<!-- s36&#45;&gt;s35 -->
<g id="edge9" class="edge">
<title>s36:e&#45;&gt;s35:w</title>
<path fill="none" stroke="black" d="M1482.5,-165C1551.87,-165 1468.97,-305.88 1522.28,-320.74"/>
<polygon fill="black" stroke="black" points="1522.15,-324.25 1532.5,-322 1523.01,-317.3 1522.15,-324.25"/>
</g>
<!-- s37&#45;&gt;s36 -->
<g id="edge3" class="edge">
<title>s37:e&#45;&gt;s36:w</title>
<path fill="none" stroke="black" d="M1007.5,-242C1046.42,-242 1055.67,-232.97 1092,-219 1108.59,-212.62 1112.65,-201.9 1125.54,-198.26"/>
<polygon fill="black" stroke="black" points="1126.02,-201.73 1135.5,-197 1125.14,-194.78 1126.02,-201.73"/>
</g>
<!-- s38 -->
<g id="node6" class="node">
<title>s38</title>
<polygon fill="none" stroke="black" points="715.5,-185 715.5,-206 1084.5,-206 1084.5,-185 715.5,-185"/>
<text text-anchor="start" x="747.5" y="-192.8" font-family="Times,serif" font-weight="bold" font-size="14.00">src.utils.TrajectoryDesiredStateSource</text>
<polygon fill="none" stroke="black" points="715.5,-122 715.5,-185 792.5,-185 792.5,-122 715.5,-122"/>
<text text-anchor="start" x="718.5" y="-149.8" font-family="Times,serif" font-size="14.00">trajectory</text>
<polygon fill="none" stroke="black" points="792.5,-164 792.5,-185 1084.5,-185 1084.5,-164 792.5,-164"/>
<text text-anchor="start" x="851.5" y="-170.8" font-family="Times,serif" font-size="14.00">trajectory_desired_state</text>
<polygon fill="none" stroke="black" points="792.5,-143 792.5,-164 1084.5,-164 1084.5,-143 792.5,-143"/>
<text text-anchor="start" x="826" y="-149.8" font-family="Times,serif" font-size="14.00">trajectory_desired_acceleration</text>
<polygon fill="none" stroke="black" points="792.5,-122 792.5,-143 1084.5,-143 1084.5,-122 792.5,-122"/>
<text text-anchor="start" x="795.5" y="-128.8" font-family="Times,serif" font-size="14.00">trajectory_desired_angular_acceleration</text>
</g>
<!-- s38&#45;&gt;s36 -->
<g id="edge4" class="edge">
<title>s38:e&#45;&gt;s36:w</title>
<path fill="none" stroke="black" d="M1085.5,-175C1103.9,-175 1110.88,-175 1125.35,-175"/>
<polygon fill="black" stroke="black" points="1125.5,-178.5 1135.5,-175 1125.5,-171.5 1125.5,-178.5"/>
</g>
<!-- s38&#45;&gt;s36 -->
<g id="edge5" class="edge">
<title>s38:e&#45;&gt;s36:w</title>
<path fill="none" stroke="black" d="M1085.5,-153C1103.91,-153 1110.87,-153.69 1125.35,-153.92"/>
<polygon fill="black" stroke="black" points="1125.47,-157.42 1135.5,-154 1125.53,-150.42 1125.47,-157.42"/>
</g>
<!-- s38&#45;&gt;s36 -->
<g id="edge6" class="edge">
<title>s38:e&#45;&gt;s36:w</title>
<path fill="none" stroke="black" d="M1085.5,-132C1103.91,-132 1110.87,-132.69 1125.35,-132.92"/>
<polygon fill="black" stroke="black" points="1125.47,-136.42 1135.5,-133 1125.53,-129.42 1125.47,-136.42"/>
</g>
<!-- meshcat_in -->
<g id="node8" class="node">
<title>meshcat_in</title>
<ellipse fill="none" stroke="magenta" cx="1629.5" cy="-553" rx="50.09" ry="18"/>
<text text-anchor="middle" x="1629.5" y="-549.3" font-family="Times,serif" font-size="14.00">Meshcat</text>
</g>
<!-- s39&#45;&gt;meshcat_in -->
<g id="edge1" class="edge">
<title>s39:e&#45;&gt;meshcat_in</title>
<path fill="none" stroke="magenta" stroke-dasharray="5,2" d="M1454.5,-553C1492.69,-553 1535.59,-553 1569.24,-553"/>
<polygon fill="magenta" stroke="magenta" points="1569.37,-556.5 1579.37,-553 1569.37,-549.5 1569.37,-556.5"/>
</g>
</g>
</svg>
